<?xml version="1.0" encoding="UTF-8"?>
<!DOCTYPE svg PUBLIC "-//W3C//DTD SVG 1.1//EN" "http://www.w3.org/Graphics/SVG/1.1/DTD/svg11.dtd">
<svg xmlns="http://www.w3.org/2000/svg" version="1.1" width="8334px" height="8334px" style="shape-rendering:geometricPrecision; text-rendering:geometricPrecision; image-rendering:optimizeQuality; fill-rule:evenodd; clip-rule:evenodd" xmlns:xlink="http://www.w3.org/1999/xlink">
<g><path style="opacity:0.968" fill="#232020" d="M 4826.5,3781.5 C 4826.5,3794.83 4826.5,3808.17 4826.5,3821.5C 4826.33,3854.5 4826.5,3887.5 4827,3920.5C 4881.48,3947.59 4909.32,3991.75 4910.5,4053C 4910.74,4083.55 4902.41,4111.38 4885.5,4136.5C 4882.91,4137.64 4881.25,4139.64 4880.5,4142.5C 4846.08,4176.69 4805.75,4185.86 4759.5,4170C 4745.48,4164.67 4733.15,4156.83 4722.5,4146.5C 4726.1,4141.73 4729.93,4137.06 4734,4132.5C 4744.4,4122.27 4754.56,4111.94 4764.5,4101.5C 4787.42,4115.44 4810.75,4115.94 4834.5,4103C 4836.24,4101.48 4837.91,4099.98 4839.5,4098.5C 4842.17,4097.83 4843.83,4096.17 4844.5,4093.5C 4851.36,4085.1 4855.53,4075.43 4857,4064.5C 4860.54,4030.4 4847.7,4004.57 4818.5,3987C 4804.9,3978.77 4790.23,3973.6 4774.5,3971.5C 4774.5,3921.5 4774.5,3871.5 4774.5,3821.5C 4774.5,3808.17 4774.5,3794.83 4774.5,3781.5C 4774.5,3771.17 4774.5,3760.83 4774.5,3750.5C 4768.37,3751.09 4762.54,3750.43 4757,3748.5C 4734.02,3689.24 4710.86,3630.07 4687.5,3571C 4710.83,3570.5 4734.16,3570.33 4757.5,3570.5C 4757.5,3545.83 4757.5,3521.17 4757.5,3496.5C 4759.5,3496.5 4761.5,3496.5 4763.5,3496.5C 4763.83,3427.16 4763.5,3357.83 4762.5,3288.5C 4376.59,3456.7 3990.76,3625.04 3605,3793.5C 3604.83,3798.86 3604.33,3804.2 3603.5,3809.5C 3600.14,3805.64 3596.64,3801.98 3593,3798.5C 3570.44,3808.2 3547.94,3818.03 3525.5,3828C 3552.02,3858.89 3578.19,3890.06 3604,3921.5C 3604.83,3963.17 3604.67,4004.84 3603.5,4046.5C 3551.48,3984.98 3499.65,3923.31 3448,3861.5C 3440.71,3864.75 3433.54,3868.09 3426.5,3871.5C 3400.28,3881.94 3374.28,3892.94 3348.5,3904.5C 3347.29,3904.93 3346.29,3905.6 3345.5,3906.5C 3343.42,3906.97 3341.42,3907.64 3339.5,3908.5C 3338.83,3908.5 3338.5,3908.83 3338.5,3909.5C 3330.87,3911.7 3323.87,3915.03 3317.5,3919.5C 3294.8,3928.33 3272.13,3938.16 3249.5,3949C 3272.03,3975.69 3294.7,4002.19 3317.5,4028.5C 3318.82,4070.96 3318.82,4113.29 3317.5,4155.5C 3272.54,4101.37 3227.38,4047.37 3182,3993.5C 3178.54,3989.53 3174.87,3985.87 3171,3982.5C 3090.87,4017.23 3010.87,4052.23 2931,4087.5C 2930.83,4087 2930.67,4086.5 2930.5,4086C 3007.78,3898.15 3085.45,3710.49 3163.5,3523C 3162.7,3521.23 3161.53,3519.73 3160,3518.5C 3159.17,3476.83 3159.33,3435.16 3160.5,3393.5C 3188.53,3426.53 3216.53,3459.53 3244.5,3492.5C 3268.78,3484.63 3293.12,3476.96 3317.5,3469.5C 3317.83,3469.5 3318.17,3469.5 3318.5,3469.5C 3348.41,3459.98 3378.41,3450.64 3408.5,3441.5C 3409.71,3441.25 3410.38,3440.59 3410.5,3439.5C 3441.95,3430.52 3473.28,3421.02 3504.5,3411C 3389.67,3274.17 3274.83,3137.33 3160,3000.5C 3159.17,2906.16 3159.33,2811.83 3160.5,2717.5C 3308.16,2892.66 3455.66,3068 3603,3243.5C 3604.49,3288.75 3604.99,3334.08 3604.5,3379.5C 3996.61,3257.58 4388.61,3135.24 4780.5,3012.5C 4819.63,3084.59 4858.63,3156.75 4897.5,3229C 4877.99,3238.12 4858.33,3246.95 4838.5,3255.5C 4837.5,3335.83 4837.17,3416.16 4837.5,3496.5C 4840.17,3496.5 4842.83,3496.5 4845.5,3496.5C 4845.5,3522.5 4845.5,3548.5 4845.5,3574.5C 4869.17,3574.5 4892.83,3574.5 4916.5,3574.5C 4893.57,3633.03 4870.07,3691.36 4846,3749.5C 4839.59,3750.48 4833.09,3750.81 4826.5,3750.5C 4826.5,3760.83 4826.5,3771.17 4826.5,3781.5 Z M 4773.5,3019.5 C 4775.23,3019.84 4775.73,3020.84 4775,3022.5C 4739.46,3121.62 4703.63,3220.62 4667.5,3319.5C 4631.85,3242.2 4596.18,3164.86 4560.5,3087.5C 4560.71,3086.91 4561.04,3086.41 4561.5,3086C 4632.37,3064.1 4703.04,3041.93 4773.5,3019.5 Z M 4779.5,3022.5 C 4780.38,3022.37 4781.04,3022.7 4781.5,3023.5C 4817.58,3091.33 4853.91,3158.99 4890.5,3226.5C 4873.22,3234.77 4855.72,3242.77 4838,3250.5C 4836.99,3249.66 4835.82,3249.33 4834.5,3249.5C 4834.5,3250.5 4834.5,3251.5 4834.5,3252.5C 4811.63,3261.6 4788.97,3271.26 4766.5,3281.5C 4737.05,3294.03 4705.88,3307.69 4673,3322.5C 4672.83,3322 4672.67,3321.5 4672.5,3321C 4708.47,3221.58 4744.14,3122.08 4779.5,3022.5 Z M 4549.5,3089.5 C 4550.38,3089.37 4551.04,3089.7 4551.5,3090.5C 4492.36,3210.11 4432.69,3329.45 4372.5,3448.5C 4340.43,3357.29 4308.76,3265.96 4277.5,3174.5C 4368.38,3146.54 4459.05,3118.2 4549.5,3089.5 Z M 4556.5,3090.5 C 4592.72,3168.62 4628.72,3246.96 4664.5,3325.5C 4569.11,3367.9 4473.45,3409.4 4377.5,3450C 4437.85,3330.47 4497.52,3210.64 4556.5,3090.5 Z M 4267.5,3177.5 C 4268.38,3177.37 4269.04,3177.7 4269.5,3178.5C 4212.92,3308.65 4156.09,3438.65 4099,3568.5C 4049.94,3471.05 4001.44,3373.38 3953.5,3275.5C 4058.44,3243.41 4163.11,3210.74 4267.5,3177.5 Z M 4273.5,3180.5 C 4305.73,3271.18 4337.4,3362.18 4368.5,3453.5C 4365.27,3456.13 4361.6,3458.29 4357.5,3460C 4276.38,3495.06 4195.38,3530.39 4114.5,3566C 4111.26,3567.64 4107.92,3568.64 4104.5,3569C 4161.13,3439.62 4217.46,3310.12 4273.5,3180.5 Z M 4832.5,3257.5 C 4834.5,3336.83 4835.16,3416.49 4834.5,3496.5C 4811.5,3496.5 4788.5,3496.5 4765.5,3496.5C 4765.5,3426.5 4765.5,3356.5 4765.5,3286.5C 4788.15,3277.4 4810.48,3267.73 4832.5,3257.5 Z M 3943.5,3278.5 C 3944.57,3279.25 3944.74,3280.25 3944,3281.5C 3881.47,3426.75 3819.14,3572.08 3757,3717.5C 3715.14,3603.77 3673.98,3489.77 3633.5,3375.5C 3737.05,3343.54 3840.38,3311.2 3943.5,3278.5 Z M 3948.5,3281.5 C 3949.38,3281.37 3950.04,3281.7 3950.5,3282.5C 3998.97,3379.27 4047.3,3476.1 4095.5,3573C 4094.56,3574.48 4093.22,3575.48 4091.5,3576C 3981.83,3623.83 3872.17,3671.67 3762.5,3719.5C 3762.17,3719.17 3761.83,3718.83 3761.5,3718.5C 3824.12,3572.93 3886.45,3427.26 3948.5,3281.5 Z M 3623.5,3378.5 C 3624.04,3378.56 3624.38,3378.89 3624.5,3379.5C 3618.26,3392.32 3611.76,3404.99 3605,3417.5C 3604.5,3406.51 3604.33,3395.51 3604.5,3384.5C 3611.05,3382.87 3617.38,3380.87 3623.5,3378.5 Z M 3628.5,3381.5 C 3629.5,3381.47 3630.16,3381.97 3630.5,3383C 3671.31,3496.43 3712.31,3609.76 3753.5,3723C 3704.03,3745.07 3654.37,3766.57 3604.5,3787.5C 3604.67,3748.17 3604.5,3708.83 3604,3669.5C 3578.12,3639.29 3552.62,3608.79 3527.5,3578C 3542.12,3549.26 3557.12,3520.76 3572.5,3492.5C 3582.82,3504.46 3593.16,3516.46 3603.5,3528.5C 3604.33,3495.17 3604.83,3461.84 3605,3428.5C 3612.86,3412.78 3620.69,3397.11 3628.5,3381.5 Z M 3425.5,3457.5 C 3422.51,3453.18 3419.18,3449.18 3415.5,3445.5C 3415.47,3444.5 3415.97,3443.84 3417,3443.5C 3447.46,3434.14 3477.79,3424.47 3508,3414.5C 3526.96,3437.79 3546.29,3460.79 3566,3483.5C 3567.75,3485.21 3568.42,3487.21 3568,3489.5C 3553.59,3517.99 3538.92,3546.32 3524,3574.5C 3491.62,3535.06 3458.79,3496.06 3425.5,3457.5 Z M 3317.5,3474.5 C 3317.5,3509.5 3317.5,3544.5 3317.5,3579.5C 3294.07,3552.16 3270.73,3524.66 3247.5,3497C 3270.64,3489.01 3293.98,3481.51 3317.5,3474.5 Z M 3317.5,3706.5 C 3317.5,3735.17 3317.5,3763.83 3317.5,3792.5C 3264.78,3730.76 3212.28,3668.76 3160,3606.5C 3159.33,3648.17 3159.33,3689.83 3160,3731.5C 3211.17,3792.67 3262.33,3853.83 3313.5,3915C 3291.17,3924.83 3268.83,3934.67 3246.5,3944.5C 3217.51,3910.67 3188.68,3876.67 3160,3842.5C 3159.33,3884.17 3159.33,3925.83 3160,3967.5C 3162.83,3971 3165.67,3974.5 3168.5,3978C 3091.99,4011.93 3015.32,4045.26 2938.5,4078C 3014.66,3894.18 3090.83,3710.35 3167,3526.5C 3217,3586.67 3267.17,3646.67 3317.5,3706.5 Z M 3426.5,3599.5 C 3444.27,3620.17 3461.93,3641 3479.5,3662C 3467.54,3684.75 3455.71,3707.59 3444,3730.5C 3437.68,3723.84 3431.85,3716.84 3426.5,3709.5C 3426.5,3672.83 3426.5,3636.17 3426.5,3599.5 Z M 3481.5,3666.5 C 3483.02,3666.51 3484.18,3667.18 3485,3668.5C 3519.81,3710.61 3554.98,3752.44 3590.5,3794C 3568.08,3804.03 3545.58,3813.86 3523,3823.5C 3519.69,3820.27 3516.35,3816.94 3513,3813.5C 3491.15,3786.99 3469.32,3760.49 3447.5,3734C 3458.98,3711.54 3470.31,3689.04 3481.5,3666.5 Z M 3426.5,3836.5 C 3432.45,3843.46 3438.45,3850.46 3444.5,3857.5C 3438.74,3860.71 3432.74,3863.38 3426.5,3865.5C 3426.5,3855.83 3426.5,3846.17 3426.5,3836.5 Z M 3317.5,3919.5 C 3317.5,3955.83 3317.5,3992.17 3317.5,4028.5C 3294.7,4002.19 3272.03,3975.69 3249.5,3949C 3272.13,3938.16 3294.8,3928.33 3317.5,3919.5 Z M 4839.5,4098.5 C 4837.91,4099.98 4836.24,4101.48 4834.5,4103C 4810.75,4115.94 4787.42,4115.44 4764.5,4101.5C 4776.81,4087.86 4789.47,4074.52 4802.5,4061.5C 4814.49,4074.16 4826.83,4086.49 4839.5,4098.5 Z"/></g>
<g><path style="opacity:0.985" fill="#232020" d="M 3318.5,3330.5 C 3317.5,3376.33 3317.17,3422.33 3317.5,3468.5C 3264.78,3406.76 3212.28,3344.76 3160,3282.5C 3159.17,3235.5 3159.33,3188.5 3160.5,3141.5C 3213.42,3204.38 3266.09,3267.38 3318.5,3330.5 Z"/></g>
<g><path style="opacity:1" fill="#4a4544" d="M 3318.5,3330.5 C 3319.17,3330.5 3319.5,3330.83 3319.5,3331.5C 3318.5,3377.33 3318.17,3423.33 3318.5,3469.5C 3318.17,3469.5 3317.83,3469.5 3317.5,3469.5C 3317.5,3469.17 3317.5,3468.83 3317.5,3468.5C 3317.17,3422.33 3317.5,3376.33 3318.5,3330.5 Z"/></g>
<g><path style="opacity:1" fill="#fcfcfc" d="M 3319.5,3331.5 C 3322.2,3333.23 3324.2,3335.57 3325.5,3338.5C 3326.08,3340.75 3327.41,3342.42 3329.5,3343.5C 3335.89,3349.55 3341.55,3356.22 3346.5,3363.5C 3347.08,3365.75 3348.41,3367.42 3350.5,3368.5C 3371.2,3391.57 3391.2,3415.24 3410.5,3439.5C 3410.38,3440.59 3409.71,3441.25 3408.5,3441.5C 3378.41,3450.64 3348.41,3459.98 3318.5,3469.5C 3318.17,3423.33 3318.5,3377.33 3319.5,3331.5 Z"/></g>
<g><path style="opacity:0.996" fill="#a6a2a2" d="M 3325.5,3338.5 C 3327.59,3339.58 3328.92,3341.25 3329.5,3343.5C 3327.41,3342.42 3326.08,3340.75 3325.5,3338.5 Z"/></g>
<g><path style="opacity:0.996" fill="#a6a2a2" d="M 3346.5,3363.5 C 3348.59,3364.58 3349.92,3366.25 3350.5,3368.5C 3348.41,3367.42 3347.08,3365.75 3346.5,3363.5 Z"/></g>
<g><path style="opacity:0.996" fill="#fefefe" d="M 3415.5,3445.5 C 3419.18,3449.18 3422.51,3453.18 3425.5,3457.5C 3425.17,3504.91 3425.51,3552.24 3426.5,3599.5C 3426.5,3636.17 3426.5,3672.83 3426.5,3709.5C 3425.67,3728.66 3425.17,3748 3425,3767.5C 3404.08,3807.68 3383.41,3848.01 3363,3888.5C 3362.5,3745.5 3362.33,3602.5 3362.5,3459.5C 3379.26,3454.43 3396.09,3449.43 3413,3444.5C 3413.9,3444.74 3414.74,3445.08 3415.5,3445.5 Z"/></g>
<g><path style="opacity:0.992" fill="#fefefe" d="M 3357.5,3461.5 C 3358.5,3606 3358.83,3750.67 3358.5,3895.5C 3345.35,3901.32 3332.18,3907.32 3319,3913.5C 3318.82,3873.13 3318.32,3832.79 3317.5,3792.5C 3317.5,3763.83 3317.5,3735.17 3317.5,3706.5C 3318.82,3664.29 3318.82,3621.96 3317.5,3579.5C 3317.5,3544.5 3317.5,3509.5 3317.5,3474.5C 3330.68,3469.77 3344.02,3465.44 3357.5,3461.5 Z"/></g>
<g><path style="opacity:1" fill="#484443" d="M 3357.5,3461.5 C 3357.56,3460.96 3357.89,3460.62 3358.5,3460.5C 3359.83,3605.67 3359.83,3750.67 3358.5,3895.5C 3358.83,3750.67 3358.5,3606 3357.5,3461.5 Z"/></g>
<g><path style="opacity:0.711" fill="#2b2422" d="M 2431.5,3721.5 C 2433.37,3721.86 2434.87,3722.86 2436,3724.5C 2576.17,3898.83 2716.33,4073.17 2856.5,4247.5C 2775.84,4248.67 2695.17,4248.83 2614.5,4248C 2552.99,4163 2491.33,4078.17 2429.5,3993.5C 2364.29,4080.76 2298.96,4167.92 2233.5,4255C 2156.83,4255.83 2080.16,4255.67 2003.5,4254.5C 2146.19,4076.81 2288.86,3899.15 2431.5,3721.5 Z"/></g>
<g><path style="opacity:1" fill="#f47e20" d="M 2232.5,4252.5 C 2157.66,4252.83 2083,4252.5 2008.5,4251.5C 2149.46,4075.87 2290.79,3900.54 2432.5,3725.5C 2573.04,3898.54 2713.04,4072.04 2852.5,4246C 2773.5,4246.67 2694.5,4246.67 2615.5,4246C 2554.03,4160.23 2492.2,4074.73 2430,3989.5C 2364.15,4077.23 2298.31,4164.9 2232.5,4252.5 Z"/></g>
<g><path style="opacity:1" fill="#4b4645" d="M 3426.5,3835.5 C 3425.83,3815.83 3425.17,3796.17 3424.5,3776.5C 3424.78,3775.71 3425.28,3775.04 3426,3774.5C 3426.5,3794.83 3426.67,3815.16 3426.5,3835.5 Z"/></g>
<g><path style="opacity:0.991" fill="#fdfdfd" d="M 3424.5,3776.5 C 3425.17,3796.17 3425.83,3815.83 3426.5,3835.5C 3426.5,3835.83 3426.5,3836.17 3426.5,3836.5C 3426.5,3846.17 3426.5,3855.83 3426.5,3865.5C 3406.51,3875.21 3386.18,3884.05 3365.5,3892C 3385.32,3853.52 3404.99,3815.02 3424.5,3776.5 Z"/></g>
<g><path style="opacity:0.967" fill="#f47e1f" d="M 4774.5,3781.5 C 4774.5,3794.83 4774.5,3808.17 4774.5,3821.5C 4765.83,3821.67 4757.16,3821.5 4748.5,3821C 4738.83,3818.19 4734.17,3811.69 4734.5,3801.5C 4733.91,3792.51 4737.58,3786.01 4745.5,3782C 4755.16,3781.5 4764.83,3781.33 4774.5,3781.5 Z"/></g>
<g><path style="opacity:0.967" fill="#f47e1f" d="M 4826.5,3781.5 C 4834.84,3781.33 4843.17,3781.5 4851.5,3782C 4859.42,3786.01 4863.09,3792.51 4862.5,3801.5C 4863.04,3811.79 4858.37,3818.29 4848.5,3821C 4841.17,3821.5 4833.84,3821.67 4826.5,3821.5C 4826.5,3808.17 4826.5,3794.83 4826.5,3781.5 Z"/></g>
<g><path style="opacity:0.99" fill="#fefefe" d="M 3426.5,3871.5 C 3426.5,3888.5 3426.5,3905.5 3426.5,3922.5C 3425.17,3964.74 3425.17,4007.07 3426.5,4049.5C 3426.5,4085.83 3426.5,4122.17 3426.5,4158.5C 3425.17,4200.74 3425.17,4243.07 3426.5,4285.5C 3426.5,4314.17 3426.5,4342.83 3426.5,4371.5C 3425.17,4413.74 3425.17,4456.07 3426.5,4498.5C 3426.5,4530.5 3426.5,4562.5 3426.5,4594.5C 3425.18,4636.71 3425.18,4679.04 3426.5,4721.5C 3426.5,4752.17 3426.5,4782.83 3426.5,4813.5C 3425.17,5057.83 3425.17,5302.17 3426.5,5546.5C 3426.5,5547.5 3426.5,5548.5 3426.5,5549.5C 3419.5,5549.5 3412.5,5549.5 3405.5,5549.5C 3405.5,5001.83 3405.5,4454.17 3405.5,3906.5C 3386.5,3905.83 3367.5,3905.17 3348.5,3904.5C 3374.28,3892.94 3400.28,3881.94 3426.5,3871.5 Z"/></g>
<g><path style="opacity:1" fill="#fcd8bb" d="M 3348.5,3904.5 C 3367.5,3905.17 3386.5,3905.83 3405.5,3906.5C 3405.17,3906.5 3404.83,3906.5 3404.5,3906.5C 3384.83,3906.5 3365.17,3906.5 3345.5,3906.5C 3346.29,3905.6 3347.29,3904.93 3348.5,3904.5 Z"/></g>
<g><path style="opacity:1" fill="#f47e20" d="M 3345.5,3906.5 C 3365.17,3906.5 3384.83,3906.5 3404.5,3906.5C 3404.5,4453.83 3404.5,5001.17 3404.5,5548.5C 3382.83,5548.5 3361.17,5548.5 3339.5,5548.5C 3339.5,5001.83 3339.5,4455.17 3339.5,3908.5C 3341.42,3907.64 3343.42,3906.97 3345.5,3906.5 Z"/></g>
<g><path style="opacity:0.991" fill="#fefefe" d="M 3338.5,3909.5 C 3338.5,4456.17 3338.5,5002.83 3338.5,5549.5C 3331.5,5549.5 3324.5,5549.5 3317.5,5549.5C 3317.5,5548.5 3317.5,5547.5 3317.5,5546.5C 3318.83,5258.96 3318.83,4971.29 3317.5,4683.5C 3317.5,4652.83 3317.5,4622.17 3317.5,4591.5C 3318.82,4549.29 3318.82,4506.96 3317.5,4464.5C 3317.5,4432.5 3317.5,4400.5 3317.5,4368.5C 3318.82,4326.29 3318.82,4283.96 3317.5,4241.5C 3317.5,4212.83 3317.5,4184.17 3317.5,4155.5C 3318.82,4113.29 3318.82,4070.96 3317.5,4028.5C 3317.5,3992.17 3317.5,3955.83 3317.5,3919.5C 3323.87,3915.03 3330.87,3911.7 3338.5,3909.5 Z"/></g>
<g><path style="opacity:0.983" fill="#232020" d="M 3426.5,3922.5 C 3485.46,3993.29 3544.62,4063.96 3604,4134.5C 3604.83,4176.17 3604.67,4217.84 3603.5,4259.5C 3544.48,4189.48 3485.48,4119.48 3426.5,4049.5C 3425.17,4007.07 3425.17,3964.74 3426.5,3922.5 Z"/></g>
<g><path style="opacity:0.979" fill="#232020" d="M 4758.5,4097.5 C 4747.82,4110.15 4736.65,4122.48 4725,4134.5C 4722.89,4137.12 4720.39,4139.12 4717.5,4140.5C 4700.53,4118.1 4690.69,4092.77 4688,4064.5C 4685.95,4049.79 4686.12,4035.12 4688.5,4020.5C 4705.17,4023.83 4721.83,4027.17 4738.5,4030.5C 4737.85,4050.46 4741.68,4069.46 4750,4087.5C 4752.7,4091.02 4755.53,4094.36 4758.5,4097.5 Z"/></g>
<g><path style="opacity:0.876" fill="#f27d20" d="M 4844.5,4093.5 C 4843.83,4096.17 4842.17,4097.83 4839.5,4098.5C 4826.83,4086.49 4814.49,4074.16 4802.5,4061.5C 4789.47,4074.52 4776.81,4087.86 4764.5,4101.5C 4754.56,4111.94 4744.4,4122.27 4734,4132.5C 4729.93,4137.06 4726.1,4141.73 4722.5,4146.5C 4707.33,4161.5 4692.67,4177 4678.5,4193C 4675.13,4193.29 4673.3,4191.79 4673,4188.5C 4688.07,4172.66 4702.91,4156.66 4717.5,4140.5C 4720.39,4139.12 4722.89,4137.12 4725,4134.5C 4736.65,4122.48 4747.82,4110.15 4758.5,4097.5C 4772.78,4081.88 4787.45,4066.55 4802.5,4051.5C 4816.16,4065.83 4830.16,4079.83 4844.5,4093.5 Z"/></g>
<g><path style="opacity:0.984" fill="#232020" d="M 3317.5,4241.5 C 3318.82,4283.96 3318.82,4326.29 3317.5,4368.5C 3265.21,4305.71 3212.71,4243.04 3160,4180.5C 3159.33,4138.83 3159.33,4097.17 3160,4055.5C 3212.74,4117.4 3265.24,4179.4 3317.5,4241.5 Z"/></g>
<g><path style="opacity:0.837" fill="#f47d20" d="M 4885.5,4136.5 C 4896.13,4148.3 4906.96,4159.96 4918,4171.5C 4918.29,4174.87 4916.79,4176.7 4913.5,4177C 4902.63,4165.3 4891.63,4153.8 4880.5,4142.5C 4881.25,4139.64 4882.91,4137.64 4885.5,4136.5 Z"/></g>
<g><path style="opacity:0.983" fill="#232020" d="M 3426.5,4158.5 C 3485.46,4229.29 3544.62,4299.96 3604,4370.5C 3604.83,4412.17 3604.67,4453.84 3603.5,4495.5C 3544.48,4425.48 3485.48,4355.48 3426.5,4285.5C 3425.17,4243.07 3425.17,4200.74 3426.5,4158.5 Z"/></g>
<g><path style="opacity:1" fill="#7a4d2e" d="M 2008.5,4251.5 C 2083,4252.5 2157.66,4252.83 2232.5,4252.5C 2157.67,4253.83 2082.67,4253.83 2007.5,4252.5C 2007.62,4251.89 2007.96,4251.56 2008.5,4251.5 Z"/></g>
<g><path style="opacity:0.984" fill="#232020" d="M 3317.5,4464.5 C 3318.82,4506.96 3318.82,4549.29 3317.5,4591.5C 3265.21,4528.71 3212.71,4466.04 3160,4403.5C 3159.17,4361.83 3159.33,4320.16 3160.5,4278.5C 3212.86,4340.52 3265.19,4402.52 3317.5,4464.5 Z"/></g>
<g><path style="opacity:0.993" fill="#22201f" d="M 2794.5,4301.5 C 2898.54,4297.41 2965.37,4345.08 2995,4444.5C 3003.02,4473.31 3008.02,4502.65 3010,4532.5C 3011.31,4558.48 3011.81,4584.48 3011.5,4610.5C 2963.83,4610.5 2916.17,4610.5 2868.5,4610.5C 2868.93,4583.28 2866.76,4556.28 2862,4529.5C 2858.68,4511.2 2851.68,4494.53 2841,4479.5C 2823.91,4461.72 2803.74,4457.22 2780.5,4466C 2763.29,4475.55 2751.46,4489.72 2745,4508.5C 2729.95,4554.77 2734.95,4598.77 2760,4640.5C 2781.08,4674.74 2806.58,4705.58 2836.5,4733C 2875.93,4766.43 2912.77,4802.6 2947,4841.5C 2989.38,4892.26 3012.38,4950.93 3016,5017.5C 3019.39,5069.68 3015.73,5121.34 3005,5172.5C 2994.9,5223.22 2971.4,5266.39 2934.5,5302C 2900.26,5329.98 2860.93,5345.65 2816.5,5349C 2776.71,5353.36 2738.04,5348.69 2700.5,5335C 2659.3,5316.8 2629.8,5286.97 2612,5245.5C 2596.38,5207 2587.04,5167 2584,5125.5C 2581.25,5089.19 2580.41,5052.85 2581.5,5016.5C 2630.83,5016.5 2680.17,5016.5 2729.5,5016.5C 2728.49,5048.96 2729.99,5081.3 2734,5113.5C 2736.3,5133.74 2743.3,5152.07 2755,5168.5C 2775.01,5187.44 2798.18,5192.6 2824.5,5184C 2838.61,5177.56 2849.11,5167.39 2856,5153.5C 2878.68,5102.66 2876.35,5052.99 2849,5004.5C 2835.62,4982.41 2820.28,4961.74 2803,4942.5C 2777.64,4916.81 2751.97,4891.47 2726,4866.5C 2708.97,4849.14 2692.3,4831.47 2676,4813.5C 2651.29,4784.42 2630.96,4752.42 2615,4717.5C 2601.27,4682.84 2593.93,4646.84 2593,4609.5C 2589.02,4551.98 2596.36,4495.98 2615,4441.5C 2632.27,4395.25 2661.1,4358.08 2701.5,4330C 2730.24,4312.9 2761.24,4303.4 2794.5,4301.5 Z"/></g>
<g><path style="opacity:0.993" fill="#22201f" d="M 1561.5,4318.5 C 1635.17,4318.5 1708.83,4318.5 1782.5,4318.5C 1814.62,4527.83 1846.79,4737.16 1879,4946.5C 1886.12,4999.69 1891.79,5053.03 1896,5106.5C 1898.89,5058.7 1903.22,5011.04 1909,4963.5C 1938.25,4749.16 1967.58,4534.82 1997,4320.5C 2073.29,4318.5 2149.79,4317.84 2226.5,4318.5C 2226.5,4656.83 2226.5,4995.17 2226.5,5333.5C 2181.5,5333.5 2136.5,5333.5 2091.5,5333.5C 2093.56,5079.5 2095.72,4825.5 2098,4571.5C 2098.74,4526.48 2099.74,4481.48 2101,4436.5C 2056.51,4735.46 2012.34,5034.46 1968.5,5333.5C 1922.17,5333.5 1875.83,5333.5 1829.5,5333.5C 1783.33,5034.79 1736.83,4736.13 1690,4437.5C 1692.35,4503.8 1694.01,4570.13 1695,4636.5C 1697.88,4868.83 1700.72,5101.17 1703.5,5333.5C 1656.17,5333.5 1608.83,5333.5 1561.5,5333.5C 1561.5,4995.17 1561.5,4656.83 1561.5,4318.5 Z"/></g>
<g><path style="opacity:0.998" fill="#22201f" d="M 2341.5,4318.5 C 2388.5,4318.5 2435.5,4318.5 2482.5,4318.5C 2482.5,4656.83 2482.5,4995.17 2482.5,5333.5C 2435.5,5333.5 2388.5,5333.5 2341.5,5333.5C 2341.5,4995.17 2341.5,4656.83 2341.5,4318.5 Z"/></g>
<g><path style="opacity:0.994" fill="#22201f" d="M 5941.5,4321.5 C 6049.39,4314.62 6120.22,4362.28 6154,4464.5C 6164.78,4499.73 6171.45,4535.73 6174,4572.5C 6175.96,4600.13 6176.8,4627.8 6176.5,4655.5C 6126.83,4655.5 6077.17,4655.5 6027.5,4655.5C 6028.26,4622.68 6026.43,4590.01 6022,4557.5C 6019.15,4536.6 6012.15,4517.26 6001,4499.5C 5987.39,4481.74 5969.56,4475.24 5947.5,4480C 5934.25,4483.54 5923.42,4490.71 5915,4501.5C 5901.16,4523.48 5892.83,4547.48 5890,4573.5C 5884.48,4615.66 5881.14,4657.99 5880,4700.5C 5876.72,4797.5 5876.72,4894.5 5880,4991.5C 5881.24,5036.54 5885.9,5081.2 5894,5125.5C 5898.65,5148.64 5908.49,5169.14 5923.5,5187C 5944.5,5204.58 5966.83,5206.58 5990.5,5193C 6005.01,5179.49 6014.51,5162.99 6019,5143.5C 6026.79,5109.12 6030.63,5074.29 6030.5,5039C 6029.7,5025.51 6029.37,5012.01 6029.5,4998.5C 6079.5,4998.5 6129.5,4998.5 6179.5,4998.5C 6184.05,5060.43 6179.88,5121.76 6167,5182.5C 6156.39,5231.05 6134.73,5273.72 6102,5310.5C 6060.46,5349.69 6010.96,5367.52 5953.5,5364C 5869.2,5359.62 5810.03,5319.12 5776,5242.5C 5758.73,5200.76 5747.4,5157.43 5742,5112.5C 5735.14,5054.37 5731.14,4996.03 5730,4937.5C 5728.03,4862.5 5728.03,4787.5 5730,4712.5C 5731.03,4655.81 5736.03,4599.47 5745,4543.5C 5752.22,4499.17 5766.22,4457.17 5787,4417.5C 5822.3,4359.75 5873.8,4327.75 5941.5,4321.5 Z"/></g>
<g><path style="opacity:0.995" fill="#22201f" d="M 3726.5,4333.5 C 3803.5,4333.33 3880.5,4333.5 3957.5,4334C 3996.28,4334.69 4033.28,4343.02 4068.5,4359C 4095.67,4373.51 4115.17,4395.01 4127,4423.5C 4141,4459.85 4149,4497.52 4151,4536.5C 4154.81,4593.33 4153.14,4650 4146,4706.5C 4142.27,4737.68 4132.94,4767.01 4118,4794.5C 4103.59,4818.07 4083.76,4835.41 4058.5,4846.5C 4086.15,4855.39 4108.98,4871.06 4127,4893.5C 4137.5,4908.99 4144.5,4925.99 4148,4944.5C 4153.82,4973.54 4157.15,5002.88 4158,5032.5C 4159.8,5070.84 4159.63,5109.17 4157.5,5147.5C 4157.48,5197.71 4160.64,5247.71 4167,5297.5C 4169.59,5314.62 4172.76,5331.62 4176.5,5348.5C 4124.83,5348.5 4073.17,5348.5 4021.5,5348.5C 4016.71,5318.03 4013.87,5287.37 4013,5256.5C 4011.2,5186.84 4009.87,5117.18 4009,5047.5C 4008.23,5021.87 4003.89,4996.87 3996,4972.5C 3985.13,4945.98 3965.29,4932.48 3936.5,4932C 3916.17,4931.5 3895.84,4931.33 3875.5,4931.5C 3875.5,5070.5 3875.5,5209.5 3875.5,5348.5C 3825.83,5348.5 3776.17,5348.5 3726.5,5348.5C 3726.5,5010.17 3726.5,4671.83 3726.5,4333.5 Z M 3875.5,4495.5 C 3892.17,4495.33 3908.84,4495.5 3925.5,4496C 3944.7,4496.55 3962.36,4501.88 3978.5,4512C 3990.09,4521.6 3997.59,4533.77 4001,4548.5C 4007.39,4574.43 4010.23,4600.77 4009.5,4627.5C 4010.79,4660.03 4006.29,4691.7 3996,4722.5C 3985.25,4747.47 3966.41,4762.31 3939.5,4767C 3935.18,4767.76 3930.85,4768.43 3926.5,4769C 3909.5,4769.5 3892.5,4769.67 3875.5,4769.5C 3875.5,4678.17 3875.5,4586.83 3875.5,4495.5 Z"/></g>
<g><path style="opacity:0.994" fill="#22201f" d="M 4198.5,4333.5 C 4253.4,4333.17 4308.24,4333.5 4363,4334.5C 4395.18,4471.58 4427.68,4608.58 4460.5,4745.5C 4496.99,4608.55 4533.32,4471.55 4569.5,4334.5C 4621.16,4333.5 4672.83,4333.17 4724.5,4333.5C 4659.98,4544.24 4595.15,4754.91 4530,4965.5C 4529.5,5093.17 4529.33,5220.83 4529.5,5348.5C 4479.17,5348.5 4428.83,5348.5 4378.5,5348.5C 4378.67,5220.5 4378.5,5092.5 4378,4964.5C 4317.69,4754.28 4257.86,4543.94 4198.5,4333.5 Z"/></g>
<g><path style="opacity:0.994" fill="#22201f" d="M 4729.5,4333.5 C 4885.5,4333.5 5041.5,4333.5 5197.5,4333.5C 5197.5,4390.17 5197.5,4446.83 5197.5,4503.5C 5144.83,4503.5 5092.17,4503.5 5039.5,4503.5C 5039.5,4785.17 5039.5,5066.83 5039.5,5348.5C 4988.5,5348.5 4937.5,5348.5 4886.5,5348.5C 4886.5,5066.83 4886.5,4785.17 4886.5,4503.5C 4834.17,4503.5 4781.83,4503.5 4729.5,4503.5C 4729.5,4446.83 4729.5,4390.17 4729.5,4333.5 Z"/></g>
<g><path style="opacity:0.993" fill="#22201f" d="M 5260.5,4333.5 C 5386.17,4333.5 5511.83,4333.5 5637.5,4333.5C 5637.5,4387.17 5637.5,4440.83 5637.5,4494.5C 5561.83,4494.5 5486.17,4494.5 5410.5,4494.5C 5410.5,4573.17 5410.5,4651.83 5410.5,4730.5C 5480.17,4730.5 5549.83,4730.5 5619.5,4730.5C 5619.5,4783.83 5619.5,4837.17 5619.5,4890.5C 5549.83,4890.5 5480.17,4890.5 5410.5,4890.5C 5410.5,4987.17 5410.5,5083.83 5410.5,5180.5C 5489.17,5180.5 5567.83,5180.5 5646.5,5180.5C 5646.5,5236.5 5646.5,5292.5 5646.5,5348.5C 5517.83,5348.5 5389.17,5348.5 5260.5,5348.5C 5260.5,5010.17 5260.5,4671.83 5260.5,4333.5 Z"/></g>
<g><path style="opacity:0.995" fill="#22201f" d="M 6275.5,4333.5 C 6324.83,4333.5 6374.17,4333.5 6423.5,4333.5C 6423.5,4464.5 6423.5,4595.5 6423.5,4726.5C 6474.17,4726.5 6524.83,4726.5 6575.5,4726.5C 6575.5,4595.5 6575.5,4464.5 6575.5,4333.5C 6625.17,4333.5 6674.83,4333.5 6724.5,4333.5C 6724.5,4671.83 6724.5,5010.17 6724.5,5348.5C 6674.83,5348.5 6625.17,5348.5 6575.5,5348.5C 6575.5,5199.5 6575.5,5050.5 6575.5,4901.5C 6524.83,4901.5 6474.17,4901.5 6423.5,4901.5C 6423.5,5050.5 6423.5,5199.5 6423.5,5348.5C 6374.17,5348.5 6324.83,5348.5 6275.5,5348.5C 6275.5,5010.17 6275.5,4671.83 6275.5,4333.5 Z"/></g>
<g><path style="opacity:0.983" fill="#232020" d="M 3426.5,4371.5 C 3485.46,4442.29 3544.62,4512.96 3604,4583.5C 3604.83,4625.17 3604.67,4666.84 3603.5,4708.5C 3544.48,4638.48 3485.48,4568.48 3426.5,4498.5C 3425.17,4456.07 3425.17,4413.74 3426.5,4371.5 Z"/></g>
<g><path style="opacity:0.995" fill="#232020" d="M 3317.5,4683.5 C 3318.83,4971.29 3318.83,5258.96 3317.5,5546.5C 3264.83,5546.5 3212.17,5546.5 3159.5,5546.5C 3159.17,5196.83 3159.5,4847.17 3160.5,4497.5C 3212.85,4559.57 3265.18,4621.57 3317.5,4683.5 Z"/></g>
<g><path style="opacity:0.983" fill="#232020" d="M 3426.5,4594.5 C 3485.46,4665.29 3544.62,4735.96 3604,4806.5C 3604.67,4848.17 3604.67,4889.83 3604,4931.5C 3544.59,4861.6 3485.43,4791.6 3426.5,4721.5C 3425.18,4679.04 3425.18,4636.71 3426.5,4594.5 Z"/></g>
<g><path style="opacity:0.994" fill="#232020" d="M 3426.5,4813.5 C 3485.46,4884.29 3544.62,4954.96 3604,5025.5C 3604.5,5199.17 3604.67,5372.83 3604.5,5546.5C 3545.17,5546.5 3485.83,5546.5 3426.5,5546.5C 3425.17,5302.17 3425.17,5057.83 3426.5,4813.5 Z"/></g>
<g><path style="opacity:1" fill="#f37d20" d="M 4760.5,5494.5 C 4753.35,5493.34 4746.01,5493.18 4738.5,5494C 4736.15,5494.24 4734.15,5495.07 4732.5,5496.5C 4729.25,5496.79 4726.58,5498.13 4724.5,5500.5C 4722.6,5500.74 4721.26,5501.74 4720.5,5503.5C 4717.83,5504.17 4716.17,5505.83 4715.5,5508.5C 4713.74,5509.26 4712.74,5510.6 4712.5,5512.5C 4710.75,5513.66 4709.75,5515.33 4709.5,5517.5C 4704.52,5526.4 4702.19,5536.07 4702.5,5546.5C 4702.13,5559.06 4705.47,5570.39 4712.5,5580.5C 4712.74,5582.4 4713.74,5583.74 4715.5,5584.5C 4716.17,5587.17 4717.83,5588.83 4720.5,5589.5C 4721.26,5591.26 4722.6,5592.26 4724.5,5592.5C 4729.07,5596.25 4734.41,5598.25 4740.5,5598.5C 4745.98,5599.65 4751.65,5599.82 4757.5,5599C 4761.66,5598.83 4765.49,5597.67 4769,5595.5C 4769.5,5582.5 4769.67,5569.5 4769.5,5556.5C 4761.83,5556.5 4754.17,5556.5 4746.5,5556.5C 4746.5,5552.17 4746.5,5547.83 4746.5,5543.5C 4758.5,5543.5 4770.5,5543.5 4782.5,5543.5C 4782.83,5564.18 4782.5,5584.84 4781.5,5605.5C 4758.02,5616.61 4735.02,5615.94 4712.5,5603.5C 4708.14,5598.81 4703.81,5594.14 4699.5,5589.5C 4687.37,5565.55 4685.7,5540.88 4694.5,5515.5C 4696.34,5513.15 4697.67,5510.48 4698.5,5507.5C 4700.33,5505.85 4701.66,5503.85 4702.5,5501.5C 4723.65,5479.3 4748.65,5473.8 4777.5,5485C 4778.15,5489.43 4777.49,5493.76 4775.5,5498C 4770.71,5496.36 4765.71,5495.19 4760.5,5494.5 Z"/></g>
<g><path style="opacity:0.25" fill="#272221" d="M 4881.5,5479.5 C 4886.5,5479.5 4891.5,5479.5 4896.5,5479.5C 4896.83,5524 4896.5,5568.34 4895.5,5612.5C 4895.83,5568.33 4895.5,5524.33 4894.5,5480.5C 4890.5,5480.5 4886.5,5480.5 4882.5,5480.5C 4881.83,5480.5 4881.5,5480.17 4881.5,5479.5 Z"/></g>
<g><path style="opacity:1" fill="#69442c" d="M 5560.5,5487.5 C 5556.89,5485.69 5553.22,5483.86 5549.5,5482C 5534.87,5478.9 5520.21,5478.73 5505.5,5481.5C 5504.83,5481.5 5504.17,5481.5 5503.5,5481.5C 5519.01,5477.82 5534.67,5477.65 5550.5,5481C 5554.41,5482.44 5557.74,5484.61 5560.5,5487.5 Z"/></g>
<g><path style="opacity:1" fill="#f37d20" d="M 5560.5,5487.5 C 5569.43,5498.21 5572.59,5510.54 5570,5524.5C 5569.34,5526.81 5568.84,5529.15 5568.5,5531.5C 5567.33,5532.51 5566.66,5533.85 5566.5,5535.5C 5563.53,5538.81 5560.53,5542.14 5557.5,5545.5C 5554.91,5546.13 5552.58,5547.3 5550.5,5549C 5551.24,5550.04 5552.24,5550.54 5553.5,5550.5C 5555.17,5552.83 5557.17,5554.83 5559.5,5556.5C 5562.79,5563.7 5565.45,5571.03 5567.5,5578.5C 5568.78,5581.59 5569.45,5584.92 5569.5,5588.5C 5570.3,5596.21 5571.97,5603.71 5574.5,5611C 5569.85,5611.5 5565.18,5611.67 5560.5,5611.5C 5557.57,5596.37 5554.07,5581.37 5550,5566.5C 5547.24,5560.04 5542.41,5556.38 5535.5,5555.5C 5529.02,5554.51 5522.35,5554.18 5515.5,5554.5C 5515.5,5573.5 5515.5,5592.5 5515.5,5611.5C 5511.5,5611.5 5507.5,5611.5 5503.5,5611.5C 5502.85,5567.95 5503.51,5524.61 5505.5,5481.5C 5520.21,5478.73 5534.87,5478.9 5549.5,5482C 5553.22,5483.86 5556.89,5485.69 5560.5,5487.5 Z M 5545.5,5495.5 C 5555.39,5502.66 5558.89,5512.33 5556,5524.5C 5552.69,5533.98 5546.19,5539.65 5536.5,5541.5C 5529.83,5541.5 5523.17,5541.5 5516.5,5541.5C 5516.5,5525.83 5516.5,5510.17 5516.5,5494.5C 5526.25,5492.92 5535.92,5493.25 5545.5,5495.5 Z"/></g>
<g><path style="opacity:1" fill="#f37d20" d="M 6036.5,5494.5 C 6029.35,5493.34 6022.01,5493.18 6014.5,5494C 6012.15,5494.24 6010.15,5495.07 6008.5,5496.5C 6005.25,5496.79 6002.58,5498.13 6000.5,5500.5C 5998.6,5500.74 5997.26,5501.74 5996.5,5503.5C 5993.83,5504.17 5992.17,5505.83 5991.5,5508.5C 5989.74,5509.26 5988.74,5510.6 5988.5,5512.5C 5981.71,5522.13 5978.38,5532.97 5978.5,5545C 5978.8,5551.9 5979.63,5558.73 5981,5565.5C 5982.48,5571.12 5984.98,5576.12 5988.5,5580.5C 5988.74,5582.4 5989.74,5583.74 5991.5,5584.5C 5992.17,5587.17 5993.83,5588.83 5996.5,5589.5C 5997.26,5591.26 5998.6,5592.26 6000.5,5592.5C 6005.12,5596.1 6010.46,5598.27 6016.5,5599C 6026.11,5600.22 6035.44,5599.22 6044.5,5596C 6045.49,5582.91 6045.82,5569.75 6045.5,5556.5C 6037.83,5556.5 6030.17,5556.5 6022.5,5556.5C 6022.5,5552.17 6022.5,5547.83 6022.5,5543.5C 6034.5,5543.5 6046.5,5543.5 6058.5,5543.5C 6058.83,5564.18 6058.5,5584.84 6057.5,5605.5C 6034.02,5616.61 6011.02,5615.94 5988.5,5603.5C 5985.17,5599.5 5981.5,5595.83 5977.5,5592.5C 5977.57,5590.97 5976.91,5589.97 5975.5,5589.5C 5964.08,5565.55 5962.41,5540.88 5970.5,5515.5C 5972.34,5513.15 5973.67,5510.48 5974.5,5507.5C 5976.33,5505.85 5977.66,5503.85 5978.5,5501.5C 5999.65,5479.3 6024.65,5473.8 6053.5,5485C 6054.15,5489.43 6053.49,5493.76 6051.5,5498C 6046.71,5496.36 6041.71,5495.19 6036.5,5494.5 Z"/></g>
<g><path style="opacity:0.25" fill="#272221" d="M 6283.5,5479.5 C 6283.5,5480.17 6283.17,5480.5 6282.5,5480.5C 6278.17,5480.5 6273.83,5480.5 6269.5,5480.5C 6269.5,5524.17 6269.5,5567.83 6269.5,5611.5C 6269.5,5611.83 6269.5,5612.17 6269.5,5612.5C 6268.5,5568.34 6268.17,5524 6268.5,5479.5C 6273.5,5479.5 6278.5,5479.5 6283.5,5479.5 Z"/></g>
<g><path style="opacity:0.722" fill="#4e3729" d="M 6446.5,5495.5 C 6445.83,5495.5 6445.5,5495.17 6445.5,5494.5C 6457.17,5494.5 6468.83,5494.5 6480.5,5494.5C 6480.5,5489.83 6480.5,5485.17 6480.5,5480.5C 6452.5,5480.5 6424.5,5480.5 6396.5,5480.5C 6396.5,5485.17 6396.5,5489.83 6396.5,5494.5C 6408.17,5494.5 6419.83,5494.5 6431.5,5494.5C 6431.5,5533.83 6431.5,5573.17 6431.5,5612.5C 6430.5,5573.67 6430.17,5534.67 6430.5,5495.5C 6418.83,5495.5 6407.17,5495.5 6395.5,5495.5C 6395.5,5490.17 6395.5,5484.83 6395.5,5479.5C 6424.17,5479.5 6452.83,5479.5 6481.5,5479.5C 6481.5,5484.83 6481.5,5490.17 6481.5,5495.5C 6469.83,5495.5 6458.17,5495.5 6446.5,5495.5 Z"/></g>
<g><path style="opacity:0.992" fill="#68442d" d="M 6629.5,5483.5 C 6610.33,5478.94 6590.99,5478.27 6571.5,5481.5C 6587.27,5478.25 6603.27,5477.75 6619.5,5480C 6623.16,5480.57 6626.5,5481.74 6629.5,5483.5 Z"/></g>
<g><path style="opacity:1" fill="#f37d20" d="M 6629.5,5483.5 C 6632.52,5485.67 6635.85,5487.34 6639.5,5488.5C 6640.26,5490.26 6641.6,5491.26 6643.5,5491.5C 6645.5,5494.17 6647.83,5496.5 6650.5,5498.5C 6650.74,5500.4 6651.74,5501.74 6653.5,5502.5C 6654.41,5505.99 6656.08,5508.99 6658.5,5511.5C 6665.1,5533.14 6665.1,5554.81 6658.5,5576.5C 6655.5,5581.83 6652.5,5587.16 6649.5,5592.5C 6645.1,5596.9 6640.44,5600.9 6635.5,5604.5C 6625.17,5609.08 6614.5,5612.08 6603.5,5613.5C 6592.12,5613.5 6580.79,5612.83 6569.5,5611.5C 6568.85,5567.95 6569.51,5524.61 6571.5,5481.5C 6590.99,5478.27 6610.33,5478.94 6629.5,5483.5 Z M 6624.5,5497.5 C 6627.99,5500.08 6631.66,5502.41 6635.5,5504.5C 6644.9,5515.69 6649.57,5528.69 6649.5,5543.5C 6648.98,5552.31 6647.65,5560.97 6645.5,5569.5C 6643.33,5572.52 6641.66,5575.85 6640.5,5579.5C 6638.74,5580.26 6637.74,5581.6 6637.5,5583.5C 6622.19,5597.33 6604.36,5602 6584,5597.5C 6583.5,5563.5 6583.33,5529.5 6583.5,5495.5C 6597.36,5492.43 6611.03,5493.09 6624.5,5497.5 Z"/></g>
<g><path style="opacity:1" fill="#f47d20" d="M 4407.5,5536.5 C 4407.5,5541.17 4407.5,5545.83 4407.5,5550.5C 4392.5,5550.5 4377.5,5550.5 4362.5,5550.5C 4361.5,5566.32 4361.17,5582.32 4361.5,5598.5C 4378.17,5598.5 4394.83,5598.5 4411.5,5598.5C 4411.5,5602.83 4411.5,5607.17 4411.5,5611.5C 4390.83,5611.5 4370.17,5611.5 4349.5,5611.5C 4349.5,5567.83 4349.5,5524.17 4349.5,5480.5C 4369.5,5480.5 4389.5,5480.5 4409.5,5480.5C 4409.5,5485.17 4409.5,5489.83 4409.5,5494.5C 4393.5,5494.5 4377.5,5494.5 4361.5,5494.5C 4361.5,5508.5 4361.5,5522.5 4361.5,5536.5C 4376.83,5536.5 4392.17,5536.5 4407.5,5536.5 Z"/></g>
<g><path style="opacity:1" fill="#f37d20" d="M 4530.5,5492.5 C 4531.41,5495.99 4533.08,5498.99 4535.5,5501.5C 4541.49,5514.82 4548.49,5527.48 4556.5,5539.5C 4562.92,5552.66 4569.58,5565.66 4576.5,5578.5C 4577.61,5582.73 4579.28,5586.73 4581.5,5590.5C 4581.83,5590 4582.17,5589.5 4582.5,5589C 4581.88,5581.36 4581.21,5573.86 4580.5,5566.5C 4580.5,5537.83 4580.5,5509.17 4580.5,5480.5C 4584.5,5480.5 4588.5,5480.5 4592.5,5480.5C 4592.5,5524.17 4592.5,5567.83 4592.5,5611.5C 4588.15,5611.67 4583.82,5611.5 4579.5,5611C 4578.96,5610.28 4578.29,5609.78 4577.5,5609.5C 4576.26,5605.34 4574.26,5601.68 4571.5,5598.5C 4570.26,5594.34 4568.26,5590.68 4565.5,5587.5C 4564.59,5584.01 4562.92,5581.01 4560.5,5578.5C 4559.66,5578.16 4559.33,5577.49 4559.5,5576.5C 4558.59,5573.01 4556.92,5570.01 4554.5,5567.5C 4553.26,5563.34 4551.26,5559.68 4548.5,5556.5C 4547.26,5552.34 4545.26,5548.68 4542.5,5545.5C 4535.43,5530.37 4528.1,5515.37 4520.5,5500.5C 4520.43,5537.46 4520.43,5574.46 4520.5,5611.5C 4516.5,5611.5 4512.5,5611.5 4508.5,5611.5C 4508.5,5567.83 4508.5,5524.17 4508.5,5480.5C 4513.54,5480.17 4518.54,5480.51 4523.5,5481.5C 4525.61,5485.4 4527.94,5489.07 4530.5,5492.5 Z"/></g>
<g><path style="opacity:0.722" fill="#593d2c" d="M 4593.5,5479.5 C 4593.5,5480.17 4593.17,5480.5 4592.5,5480.5C 4588.5,5480.5 4584.5,5480.5 4580.5,5480.5C 4580.5,5509.17 4580.5,5537.83 4580.5,5566.5C 4579.5,5537.67 4579.17,5508.67 4579.5,5479.5C 4584.17,5479.5 4588.83,5479.5 4593.5,5479.5 Z"/></g>
<g><path style="opacity:0.58" fill="#93572e" d="M 4593.5,5479.5 C 4594.5,5523.66 4594.83,5568 4594.5,5612.5C 4589.16,5612.67 4583.82,5612.5 4578.5,5612C 4577.75,5611.33 4577.41,5610.5 4577.5,5609.5C 4578.29,5609.78 4578.96,5610.28 4579.5,5611C 4583.82,5611.5 4588.15,5611.67 4592.5,5611.5C 4592.5,5567.83 4592.5,5524.17 4592.5,5480.5C 4593.17,5480.5 4593.5,5480.17 4593.5,5479.5 Z"/></g>
<g><path style="opacity:0.58" fill="#9a5a2e" d="M 4881.5,5479.5 C 4881.5,5480.17 4881.83,5480.5 4882.5,5480.5C 4882.5,5524.17 4882.5,5567.83 4882.5,5611.5C 4886.5,5611.5 4890.5,5611.5 4894.5,5611.5C 4894.5,5567.83 4894.5,5524.17 4894.5,5480.5C 4895.5,5524.33 4895.83,5568.33 4895.5,5612.5C 4890.5,5612.5 4885.5,5612.5 4880.5,5612.5C 4880.17,5568 4880.5,5523.66 4881.5,5479.5 Z"/></g>
<g><path style="opacity:1" fill="#f47e1f" d="M 4882.5,5480.5 C 4886.5,5480.5 4890.5,5480.5 4894.5,5480.5C 4894.5,5524.17 4894.5,5567.83 4894.5,5611.5C 4890.5,5611.5 4886.5,5611.5 4882.5,5611.5C 4882.5,5567.83 4882.5,5524.17 4882.5,5480.5 Z"/></g>
<g><path style="opacity:0.969" fill="#71482e" d="M 5047.5,5542.5 C 5035.52,5522.55 5024.02,5502.22 5013,5481.5C 5007.93,5480.53 5002.76,5480.2 4997.5,5480.5C 4997.5,5524.17 4997.5,5567.83 4997.5,5611.5C 5001.5,5611.5 5005.5,5611.5 5009.5,5611.5C 5009.8,5575.82 5009.47,5540.15 5008.5,5504.5C 5008.83,5502.83 5009.17,5501.17 5009.5,5499.5C 5012.05,5503.94 5014.05,5508.6 5015.5,5513.5C 5013.77,5511.06 5012.27,5508.39 5011,5505.5C 5010.5,5541.17 5010.33,5576.83 5010.5,5612.5C 5005.83,5612.5 5001.17,5612.5 4996.5,5612.5C 4996.5,5568.17 4996.5,5523.83 4996.5,5479.5C 5002.43,5479.19 5008.26,5479.53 5014,5480.5C 5025.45,5501.06 5036.61,5521.73 5047.5,5542.5 Z"/></g>
<g><path style="opacity:1" fill="#f47d20" d="M 5047.5,5542.5 C 5048.74,5546.66 5050.74,5550.32 5053.5,5553.5C 5054.34,5553.84 5054.67,5554.51 5054.5,5555.5C 5057.33,5562.48 5060.66,5569.15 5064.5,5575.5C 5066.17,5581 5068.33,5586.33 5071,5591.5C 5070.6,5554.51 5070.43,5517.51 5070.5,5480.5C 5074.5,5480.5 5078.5,5480.5 5082.5,5480.5C 5082.5,5524.17 5082.5,5567.83 5082.5,5611.5C 5077.82,5611.67 5073.15,5611.5 5068.5,5611C 5066.85,5607.52 5064.85,5604.35 5062.5,5601.5C 5061.59,5598.01 5059.92,5595.01 5057.5,5592.5C 5056.26,5588.34 5054.26,5584.68 5051.5,5581.5C 5050.26,5577.34 5048.26,5573.68 5045.5,5570.5C 5044.26,5566.34 5042.26,5562.68 5039.5,5559.5C 5038.59,5556.01 5036.92,5553.01 5034.5,5550.5C 5032.59,5545.02 5029.93,5540.02 5026.5,5535.5C 5025.66,5535.16 5025.33,5534.49 5025.5,5533.5C 5022.67,5526.52 5019.34,5519.85 5015.5,5513.5C 5014.05,5508.6 5012.05,5503.94 5009.5,5499.5C 5009.17,5501.17 5008.83,5502.83 5008.5,5504.5C 5009.47,5540.15 5009.8,5575.82 5009.5,5611.5C 5005.5,5611.5 5001.5,5611.5 4997.5,5611.5C 4997.5,5567.83 4997.5,5524.17 4997.5,5480.5C 5002.76,5480.2 5007.93,5480.53 5013,5481.5C 5024.02,5502.22 5035.52,5522.55 5047.5,5542.5 Z"/></g>
<g><path style="opacity:0.878" fill="#6e472e" d="M 5062.5,5601.5 C 5064.85,5604.35 5066.85,5607.52 5068.5,5611C 5073.15,5611.5 5077.82,5611.67 5082.5,5611.5C 5082.5,5567.83 5082.5,5524.17 5082.5,5480.5C 5078.5,5480.5 5074.5,5480.5 5070.5,5480.5C 5070.43,5517.51 5070.6,5554.51 5071,5591.5C 5068.33,5586.33 5066.17,5581 5064.5,5575.5C 5066.83,5578.83 5068.66,5582.49 5070,5586.5C 5069.53,5550.88 5069.36,5515.21 5069.5,5479.5C 5074.17,5479.5 5078.83,5479.5 5083.5,5479.5C 5083.5,5523.83 5083.5,5568.17 5083.5,5612.5C 5078.16,5612.67 5072.82,5612.5 5067.5,5612C 5065.42,5608.68 5063.75,5605.18 5062.5,5601.5 Z"/></g>
<g><path style="opacity:0.722" fill="#543b2b" d="M 5246.5,5494.5 C 5246.17,5494.5 5245.83,5494.5 5245.5,5494.5C 5245.5,5489.83 5245.5,5485.17 5245.5,5480.5C 5225.17,5480.5 5204.83,5480.5 5184.5,5480.5C 5184.5,5524.17 5184.5,5567.83 5184.5,5611.5C 5184.5,5611.83 5184.5,5612.17 5184.5,5612.5C 5183.5,5568.34 5183.17,5524 5183.5,5479.5C 5204.5,5479.5 5225.5,5479.5 5246.5,5479.5C 5246.5,5484.5 5246.5,5489.5 5246.5,5494.5 Z"/></g>
<g><path style="opacity:1" fill="#f47e1f" d="M 5245.5,5494.5 C 5229.5,5494.5 5213.5,5494.5 5197.5,5494.5C 5197.5,5508.5 5197.5,5522.5 5197.5,5536.5C 5212.5,5536.5 5227.5,5536.5 5242.5,5536.5C 5242.5,5541.17 5242.5,5545.83 5242.5,5550.5C 5227.5,5550.5 5212.5,5550.5 5197.5,5550.5C 5197.5,5566.5 5197.5,5582.5 5197.5,5598.5C 5214.17,5598.5 5230.83,5598.5 5247.5,5598.5C 5247.5,5602.83 5247.5,5607.17 5247.5,5611.5C 5226.5,5611.5 5205.5,5611.5 5184.5,5611.5C 5184.5,5567.83 5184.5,5524.17 5184.5,5480.5C 5204.83,5480.5 5225.17,5480.5 5245.5,5480.5C 5245.5,5485.17 5245.5,5489.83 5245.5,5494.5 Z"/></g>
<g><path style="opacity:1" fill="#f47e1f" d="M 5344.5,5480.5 C 5364.5,5480.5 5384.5,5480.5 5404.5,5480.5C 5404.5,5485.17 5404.5,5489.83 5404.5,5494.5C 5388.5,5494.5 5372.5,5494.5 5356.5,5494.5C 5356.5,5508.5 5356.5,5522.5 5356.5,5536.5C 5371.5,5536.5 5386.5,5536.5 5401.5,5536.5C 5401.5,5541.17 5401.5,5545.83 5401.5,5550.5C 5386.83,5550.5 5372.17,5550.5 5357.5,5550.5C 5356.5,5566.32 5356.17,5582.32 5356.5,5598.5C 5373.17,5598.5 5389.83,5598.5 5406.5,5598.5C 5406.5,5602.83 5406.5,5607.17 5406.5,5611.5C 5385.83,5611.5 5365.17,5611.5 5344.5,5611.5C 5344.5,5567.83 5344.5,5524.17 5344.5,5480.5 Z"/></g>
<g><path style="opacity:0.969" fill="#71482e" d="M 5667.5,5479.5 C 5672.5,5479.5 5677.5,5479.5 5682.5,5479.5C 5682.5,5523.83 5682.5,5568.17 5682.5,5612.5C 5677.5,5612.5 5672.5,5612.5 5667.5,5612.5C 5667.5,5568.17 5667.5,5523.83 5667.5,5479.5 Z"/></g>
<g><path style="opacity:1" fill="#f47e1f" d="M 5668.5,5480.5 C 5672.83,5480.5 5677.17,5480.5 5681.5,5480.5C 5681.5,5524.17 5681.5,5567.83 5681.5,5611.5C 5677.17,5611.5 5672.83,5611.5 5668.5,5611.5C 5668.5,5567.83 5668.5,5524.17 5668.5,5480.5 Z"/></g>
<g><path style="opacity:1" fill="#f37d20" d="M 5806.5,5492.5 C 5815.82,5511.82 5826.16,5530.48 5837.5,5548.5C 5841.99,5558.82 5846.99,5568.82 5852.5,5578.5C 5853.61,5582.73 5855.28,5586.73 5857.5,5590.5C 5857.83,5590 5858.17,5589.5 5858.5,5589C 5857.72,5581.54 5857.22,5574.04 5857,5566.5C 5856.5,5537.84 5856.33,5509.17 5856.5,5480.5C 5860.5,5480.5 5864.5,5480.5 5868.5,5480.5C 5868.5,5524.17 5868.5,5567.83 5868.5,5611.5C 5864.15,5611.67 5859.82,5611.5 5855.5,5611C 5854.96,5610.28 5854.29,5609.78 5853.5,5609.5C 5852.26,5605.34 5850.26,5601.68 5847.5,5598.5C 5846.59,5595.01 5844.92,5592.01 5842.5,5589.5C 5841.26,5585.34 5839.26,5581.68 5836.5,5578.5C 5835.26,5574.34 5833.26,5570.68 5830.5,5567.5C 5829.26,5563.34 5827.26,5559.68 5824.5,5556.5C 5823.59,5553.01 5821.92,5550.01 5819.5,5547.5C 5816.59,5540.02 5812.93,5533.02 5808.5,5526.5C 5806.99,5524.82 5805.99,5522.82 5805.5,5520.5C 5803.96,5515.08 5801.62,5510.08 5798.5,5505.5C 5798.62,5503.52 5797.95,5501.85 5796.5,5500.5C 5796.17,5504 5795.83,5507.5 5795.5,5511C 5796.42,5544.49 5796.76,5577.99 5796.5,5611.5C 5792.5,5611.5 5788.5,5611.5 5784.5,5611.5C 5784.5,5567.83 5784.5,5524.17 5784.5,5480.5C 5789.54,5480.17 5794.54,5480.51 5799.5,5481.5C 5801.61,5485.4 5803.94,5489.07 5806.5,5492.5 Z"/></g>
<g><path style="opacity:0.722" fill="#5b3e2c" d="M 5869.5,5479.5 C 5869.5,5480.17 5869.17,5480.5 5868.5,5480.5C 5864.5,5480.5 5860.5,5480.5 5856.5,5480.5C 5856.33,5509.17 5856.5,5537.84 5857,5566.5C 5857.22,5574.04 5857.72,5581.54 5858.5,5589C 5858.17,5589.5 5857.83,5590 5857.5,5590.5C 5855.28,5586.73 5853.61,5582.73 5852.5,5578.5C 5853.89,5580.27 5855.06,5582.27 5856,5584.5C 5855.63,5549.51 5855.46,5514.51 5855.5,5479.5C 5860.17,5479.5 5864.83,5479.5 5869.5,5479.5 Z"/></g>
<g><path style="opacity:0.58" fill="#93572e" d="M 5869.5,5479.5 C 5870.5,5523.66 5870.83,5568 5870.5,5612.5C 5865.16,5612.67 5859.82,5612.5 5854.5,5612C 5853.75,5611.33 5853.41,5610.5 5853.5,5609.5C 5854.29,5609.78 5854.96,5610.28 5855.5,5611C 5859.82,5611.5 5864.15,5611.67 5868.5,5611.5C 5868.5,5567.83 5868.5,5524.17 5868.5,5480.5C 5869.17,5480.5 5869.5,5480.17 5869.5,5479.5 Z"/></g>
<g><path style="opacity:1" fill="#f17c21" d="M 6282.5,5480.5 C 6282.17,5519.67 6282.5,5558.67 6283.5,5597.5C 6299.83,5597.5 6316.17,5597.5 6332.5,5597.5C 6332.5,5602.17 6332.5,5606.83 6332.5,5611.5C 6311.5,5611.5 6290.5,5611.5 6269.5,5611.5C 6269.5,5567.83 6269.5,5524.17 6269.5,5480.5C 6273.83,5480.5 6278.17,5480.5 6282.5,5480.5 Z"/></g>
<g><path style="opacity:0.58" fill="#95582e" d="M 6283.5,5479.5 C 6284.5,5518.33 6284.83,5557.33 6284.5,5596.5C 6283.83,5596.5 6283.5,5596.83 6283.5,5597.5C 6282.5,5558.67 6282.17,5519.67 6282.5,5480.5C 6283.17,5480.5 6283.5,5480.17 6283.5,5479.5 Z"/></g>
<g><path style="opacity:1" fill="#f47e1f" d="M 6445.5,5494.5 C 6444.5,5533.33 6444.17,5572.33 6444.5,5611.5C 6440.5,5611.5 6436.5,5611.5 6432.5,5611.5C 6432.83,5572.33 6432.5,5533.33 6431.5,5494.5C 6419.83,5494.5 6408.17,5494.5 6396.5,5494.5C 6396.5,5489.83 6396.5,5485.17 6396.5,5480.5C 6424.5,5480.5 6452.5,5480.5 6480.5,5480.5C 6480.5,5485.17 6480.5,5489.83 6480.5,5494.5C 6468.83,5494.5 6457.17,5494.5 6445.5,5494.5 Z"/></g>
<g><path style="opacity:0.863" fill="#6d462d" d="M 4760.5,5494.5 C 4765.71,5495.19 4770.71,5496.36 4775.5,5498C 4777.49,5493.76 4778.15,5489.43 4777.5,5485C 4748.65,5473.8 4723.65,5479.3 4702.5,5501.5C 4711.34,5488.54 4723.67,5481.04 4739.5,5479C 4752.97,5477.26 4765.97,5478.92 4778.5,5484C 4779.17,5484.67 4779.83,5485.33 4780.5,5486C 4779.21,5490.99 4777.55,5495.82 4775.5,5500.5C 4770.55,5498.08 4765.55,5496.08 4760.5,5494.5 Z"/></g>
<g><path style="opacity:0.58" fill="#8f552e" d="M 5503.5,5481.5 C 5504.17,5481.5 5504.83,5481.5 5505.5,5481.5C 5503.51,5524.61 5502.85,5567.95 5503.5,5611.5C 5507.5,5611.5 5511.5,5611.5 5515.5,5611.5C 5515.5,5592.5 5515.5,5573.5 5515.5,5554.5C 5522.35,5554.18 5529.02,5554.51 5535.5,5555.5C 5534.83,5555.5 5534.17,5555.5 5533.5,5555.5C 5527.83,5555.5 5522.17,5555.5 5516.5,5555.5C 5516.5,5574.5 5516.5,5593.5 5516.5,5612.5C 5511.5,5612.5 5506.5,5612.5 5501.5,5612.5C 5500.84,5568.49 5501.51,5524.82 5503.5,5481.5 Z"/></g>
<g><path style="opacity:0.722" fill="#593d2c" d="M 6571.5,5481.5 C 6569.51,5524.61 6568.85,5567.95 6569.5,5611.5C 6580.79,5612.83 6592.12,5613.5 6603.5,5613.5C 6591.95,5614.55 6580.28,5614.21 6568.5,5612.5C 6568.5,5568.83 6568.5,5525.17 6568.5,5481.5C 6569.5,5481.5 6570.5,5481.5 6571.5,5481.5 Z"/></g>
<g><path style="opacity:1" fill="#6e462d" d="M 6036.5,5494.5 C 6041.71,5495.19 6046.71,5496.36 6051.5,5498C 6053.49,5493.76 6054.15,5489.43 6053.5,5485C 6024.65,5473.8 5999.65,5479.3 5978.5,5501.5C 5987.34,5488.54 5999.67,5481.04 6015.5,5479C 6028.97,5477.26 6041.97,5478.92 6054.5,5484C 6055.17,5484.67 6055.83,5485.33 6056.5,5486C 6055.21,5490.99 6053.55,5495.82 6051.5,5500.5C 6046.55,5498.08 6041.55,5496.08 6036.5,5494.5 Z"/></g>
<g><path style="opacity:0.894" fill="#63412d" d="M 6629.5,5483.5 C 6633.42,5484.13 6636.75,5485.79 6639.5,5488.5C 6635.85,5487.34 6632.52,5485.67 6629.5,5483.5 Z"/></g>
<g><path style="opacity:0.231" fill="#6b462e" d="M 6639.5,5488.5 C 6641.4,5488.74 6642.74,5489.74 6643.5,5491.5C 6641.6,5491.26 6640.26,5490.26 6639.5,5488.5 Z"/></g>
<g><path style="opacity:0.722" fill="#67432d" d="M 5545.5,5495.5 C 5535.92,5493.25 5526.25,5492.92 5516.5,5494.5C 5517.26,5493.73 5518.26,5493.23 5519.5,5493C 5526.5,5492.33 5533.5,5492.33 5540.5,5493C 5542.49,5493.37 5544.16,5494.21 5545.5,5495.5 Z"/></g>
<g><path style="opacity:0.988" fill="#563b2a" d="M 6643.5,5491.5 C 6646.83,5492.83 6649.17,5495.17 6650.5,5498.5C 6647.83,5496.5 6645.5,5494.17 6643.5,5491.5 Z"/></g>
<g><path style="opacity:0.427" fill="#603f2c" d="M 4760.5,5494.5 C 4751.06,5494.06 4741.72,5494.73 4732.5,5496.5C 4734.15,5495.07 4736.15,5494.24 4738.5,5494C 4746.01,5493.18 4753.35,5493.34 4760.5,5494.5 Z"/></g>
<g><path style="opacity:1" fill="#7a4c2e" d="M 5516.5,5494.5 C 5516.5,5510.17 5516.5,5525.83 5516.5,5541.5C 5523.17,5541.5 5529.83,5541.5 5536.5,5541.5C 5537.17,5541.5 5537.83,5541.5 5538.5,5541.5C 5531.02,5542.49 5523.35,5542.83 5515.5,5542.5C 5515.17,5526.32 5515.5,5510.32 5516.5,5494.5 Z"/></g>
<g><path style="opacity:0.549" fill="#74492d" d="M 5560.5,5487.5 C 5568.83,5494.84 5572.83,5504.17 5572.5,5515.5C 5572.22,5521.23 5570.89,5526.57 5568.5,5531.5C 5568.84,5529.15 5569.34,5526.81 5570,5524.5C 5572.59,5510.54 5569.43,5498.21 5560.5,5487.5 Z"/></g>
<g><path style="opacity:0.863" fill="#61402c" d="M 6036.5,5494.5 C 6027.07,5494.1 6017.73,5494.77 6008.5,5496.5C 6010.15,5495.07 6012.15,5494.24 6014.5,5494C 6022.01,5493.18 6029.35,5493.34 6036.5,5494.5 Z"/></g>
<g><path style="opacity:0.58" fill="#9a5a2e" d="M 6431.5,5494.5 C 6432.5,5533.33 6432.83,5572.33 6432.5,5611.5C 6436.5,5611.5 6440.5,5611.5 6444.5,5611.5C 6444.17,5572.33 6444.5,5533.33 6445.5,5494.5C 6445.5,5495.17 6445.83,5495.5 6446.5,5495.5C 6446.5,5534.5 6446.5,5573.5 6446.5,5612.5C 6441.5,5612.5 6436.5,5612.5 6431.5,5612.5C 6431.5,5573.17 6431.5,5533.83 6431.5,5494.5 Z"/></g>
<g><path style="opacity:1" fill="#754a2e" d="M 6624.5,5497.5 C 6611.03,5493.09 6597.36,5492.43 6583.5,5495.5C 6583.33,5529.5 6583.5,5563.5 6584,5597.5C 6604.36,5602 6622.19,5597.33 6637.5,5583.5C 6635.74,5587.1 6633.07,5589.93 6629.5,5592C 6614.75,5599.87 6599.25,5602.04 6583,5598.5C 6582.5,5563.83 6582.33,5529.17 6582.5,5494.5C 6591.75,5492.71 6601.09,5492.21 6610.5,5493C 6615.58,5493.59 6620.24,5495.09 6624.5,5497.5 Z"/></g>
<g><path style="opacity:0.231" fill="#66432d" d="M 4530.5,5492.5 C 4532.92,5495.01 4534.59,5498.01 4535.5,5501.5C 4533.08,5498.99 4531.41,5495.99 4530.5,5492.5 Z"/></g>
<g><path style="opacity:0.231" fill="#69442d" d="M 5806.5,5492.5 C 5817.34,5510.84 5827.67,5529.5 5837.5,5548.5C 5826.16,5530.48 5815.82,5511.82 5806.5,5492.5 Z"/></g>
<g><path style="opacity:0.231" fill="#6c462e" d="M 4732.5,5496.5 C 4730.15,5498.34 4727.48,5499.67 4724.5,5500.5C 4726.58,5498.13 4729.25,5496.79 4732.5,5496.5 Z"/></g>
<g><path style="opacity:0.231" fill="#6d472e" d="M 6008.5,5496.5 C 6006.15,5498.34 6003.48,5499.67 6000.5,5500.5C 6002.58,5498.13 6005.25,5496.79 6008.5,5496.5 Z"/></g>
<g><path style="opacity:0.427" fill="#67432c" d="M 6624.5,5497.5 C 6628.98,5498.57 6632.64,5500.9 6635.5,5504.5C 6631.66,5502.41 6627.99,5500.08 6624.5,5497.5 Z"/></g>
<g><path style="opacity:0.69" fill="#5f3f2b" d="M 4724.5,5500.5 C 4723.74,5502.26 4722.4,5503.26 4720.5,5503.5C 4721.26,5501.74 4722.6,5500.74 4724.5,5500.5 Z"/></g>
<g><path style="opacity:0.988" fill="#68442d" d="M 6650.5,5498.5 C 6652.26,5499.26 6653.26,5500.6 6653.5,5502.5C 6651.74,5501.74 6650.74,5500.4 6650.5,5498.5 Z"/></g>
<g><path style="opacity:0.427" fill="#5b3d2b" d="M 6000.5,5500.5 C 5999.74,5502.26 5998.4,5503.26 5996.5,5503.5C 5997.26,5501.74 5998.6,5500.74 6000.5,5500.5 Z"/></g>
<g><path style="opacity:1" fill="#6d462d" d="M 4702.5,5501.5 C 4701.66,5503.85 4700.33,5505.85 4698.5,5507.5C 4698.84,5504.8 4700.18,5502.8 4702.5,5501.5 Z"/></g>
<g><path style="opacity:0.757" fill="#7c4d2e" d="M 4720.5,5503.5 C 4719.17,5505.5 4717.5,5507.17 4715.5,5508.5C 4716.17,5505.83 4717.83,5504.17 4720.5,5503.5 Z"/></g>
<g><path style="opacity:0.757" fill="#7b4d2e" d="M 5996.5,5503.5 C 5995.17,5505.5 5993.5,5507.17 5991.5,5508.5C 5992.17,5505.83 5993.83,5504.17 5996.5,5503.5 Z"/></g>
<g><path style="opacity:0.549" fill="#6d462d" d="M 6653.5,5502.5 C 6655.94,5505.05 6657.61,5508.05 6658.5,5511.5C 6656.08,5508.99 6654.41,5505.99 6653.5,5502.5 Z"/></g>
<g><path style="opacity:0.976" fill="#66432d" d="M 5978.5,5501.5 C 5977.66,5503.85 5976.33,5505.85 5974.5,5507.5C 5974.84,5504.8 5976.18,5502.8 5978.5,5501.5 Z"/></g>
<g><path style="opacity:0.931" fill="#66432d" d="M 4698.5,5507.5 C 4697.67,5510.48 4696.34,5513.15 4694.5,5515.5C 4694.79,5512.25 4696.13,5509.58 4698.5,5507.5 Z"/></g>
<g><path style="opacity:0.931" fill="#66432d" d="M 5974.5,5507.5 C 5973.67,5510.48 5972.34,5513.15 5970.5,5515.5C 5970.79,5512.25 5972.13,5509.58 5974.5,5507.5 Z"/></g>
<g><path style="opacity:0.286" fill="#533a2a" d="M 4715.5,5508.5 C 4715.26,5510.4 4714.26,5511.74 4712.5,5512.5C 4712.74,5510.6 4713.74,5509.26 4715.5,5508.5 Z"/></g>
<g><path style="opacity:0.286" fill="#563b2b" d="M 5991.5,5508.5 C 5991.26,5510.4 5990.26,5511.74 5988.5,5512.5C 5988.74,5510.6 5989.74,5509.26 5991.5,5508.5 Z"/></g>
<g><path style="opacity:0.231" fill="#68442d" d="M 5798.5,5505.5 C 5801.62,5510.08 5803.96,5515.08 5805.5,5520.5C 5802.38,5515.92 5800.04,5510.92 5798.5,5505.5 Z"/></g>
<g><path style="opacity:0.91" fill="#6c462d" d="M 6635.5,5504.5 C 6640.16,5508.1 6643.66,5512.76 6646,5518.5C 6652.15,5535.71 6651.98,5552.71 6645.5,5569.5C 6647.65,5560.97 6648.98,5552.31 6649.5,5543.5C 6649.57,5528.69 6644.9,5515.69 6635.5,5504.5 Z"/></g>
<g><path style="opacity:0.808" fill="#5f402c" d="M 4712.5,5512.5 C 4712.25,5514.67 4711.25,5516.34 4709.5,5517.5C 4709.75,5515.33 4710.75,5513.66 4712.5,5512.5 Z"/></g>
<g><path style="opacity:0.851" fill="#5f3f2c" d="M 5545.5,5495.5 C 5550.43,5497.26 5553.93,5500.59 5556,5505.5C 5558.49,5514.77 5557.83,5523.77 5554,5532.5C 5550.08,5537.71 5544.91,5540.71 5538.5,5541.5C 5537.83,5541.5 5537.17,5541.5 5536.5,5541.5C 5546.19,5539.65 5552.69,5533.98 5556,5524.5C 5558.89,5512.33 5555.39,5502.66 5545.5,5495.5 Z"/></g>
<g><path style="opacity:0.878" fill="#6d462e" d="M 4530.5,5492.5 C 4527.94,5489.07 4525.61,5485.4 4523.5,5481.5C 4518.54,5480.51 4513.54,5480.17 4508.5,5480.5C 4508.5,5524.17 4508.5,5567.83 4508.5,5611.5C 4512.5,5611.5 4516.5,5611.5 4520.5,5611.5C 4520.43,5574.46 4520.43,5537.46 4520.5,5500.5C 4528.1,5515.37 4535.43,5530.37 4542.5,5545.5C 4534.58,5532 4527.42,5518 4521,5503.5C 4521.45,5539.81 4521.62,5576.14 4521.5,5612.5C 4516.83,5612.5 4512.17,5612.5 4507.5,5612.5C 4507.5,5568.17 4507.5,5523.83 4507.5,5479.5C 4513.21,5479.17 4518.87,5479.5 4524.5,5480.5C 4527.04,5484.24 4529.04,5488.24 4530.5,5492.5 Z"/></g>
<g><path style="opacity:0.808" fill="#54392a" d="M 5015.5,5513.5 C 5019.34,5519.85 5022.67,5526.52 5025.5,5533.5C 5021.13,5527.42 5017.79,5520.75 5015.5,5513.5 Z"/></g>
<g><path style="opacity:0.878" fill="#6f472e" d="M 5806.5,5492.5 C 5803.94,5489.07 5801.61,5485.4 5799.5,5481.5C 5794.54,5480.51 5789.54,5480.17 5784.5,5480.5C 5784.5,5524.17 5784.5,5567.83 5784.5,5611.5C 5788.5,5611.5 5792.5,5611.5 5796.5,5611.5C 5796.76,5577.99 5796.42,5544.49 5795.5,5511C 5795.83,5507.5 5796.17,5504 5796.5,5500.5C 5797.95,5501.85 5798.62,5503.52 5798.5,5505.5C 5797.78,5505.08 5797.28,5504.42 5797,5503.5C 5797.45,5539.81 5797.61,5576.14 5797.5,5612.5C 5792.83,5612.5 5788.17,5612.5 5783.5,5612.5C 5783.5,5568.17 5783.5,5523.83 5783.5,5479.5C 5789.21,5479.17 5794.87,5479.5 5800.5,5480.5C 5803.04,5484.24 5805.04,5488.24 5806.5,5492.5 Z"/></g>
<g><path style="opacity:0.949" fill="#68442d" d="M 5808.5,5526.5 C 5812.93,5533.02 5816.59,5540.02 5819.5,5547.5C 5815.07,5540.98 5811.41,5533.98 5808.5,5526.5 Z"/></g>
<g><path style="opacity:1" fill="#69442d" d="M 4535.5,5501.5 C 4543,5513.84 4550,5526.5 4556.5,5539.5C 4548.49,5527.48 4541.49,5514.82 4535.5,5501.5 Z"/></g>
<g><path style="opacity:0.765" fill="#573b2b" d="M 5568.5,5531.5 C 5568.77,5533.38 5568.1,5534.71 5566.5,5535.5C 5566.66,5533.85 5567.33,5532.51 5568.5,5531.5 Z"/></g>
<g><path style="opacity:0.878" fill="#65432d" d="M 5343.5,5479.5 C 5364.17,5479.5 5384.83,5479.5 5405.5,5479.5C 5405.5,5484.83 5405.5,5490.17 5405.5,5495.5C 5389.5,5495.5 5373.5,5495.5 5357.5,5495.5C 5357.5,5508.83 5357.5,5522.17 5357.5,5535.5C 5372.5,5535.5 5387.5,5535.5 5402.5,5535.5C 5402.5,5540.83 5402.5,5546.17 5402.5,5551.5C 5387.5,5551.5 5372.5,5551.5 5357.5,5551.5C 5357.5,5551.17 5357.5,5550.83 5357.5,5550.5C 5372.17,5550.5 5386.83,5550.5 5401.5,5550.5C 5401.5,5545.83 5401.5,5541.17 5401.5,5536.5C 5386.5,5536.5 5371.5,5536.5 5356.5,5536.5C 5356.5,5522.5 5356.5,5508.5 5356.5,5494.5C 5372.5,5494.5 5388.5,5494.5 5404.5,5494.5C 5404.5,5489.83 5404.5,5485.17 5404.5,5480.5C 5384.5,5480.5 5364.5,5480.5 5344.5,5480.5C 5343.83,5480.5 5343.5,5480.17 5343.5,5479.5 Z"/></g>
<g><path style="opacity:0.231" fill="#65432d" d="M 5566.5,5535.5 C 5564.89,5540.1 5561.89,5543.44 5557.5,5545.5C 5560.53,5542.14 5563.53,5538.81 5566.5,5535.5 Z"/></g>
<g><path style="opacity:0.969" fill="#6e472e" d="M 4712.5,5603.5 C 4735.02,5615.94 4758.02,5616.61 4781.5,5605.5C 4782.5,5584.84 4782.83,5564.18 4782.5,5543.5C 4770.5,5543.5 4758.5,5543.5 4746.5,5543.5C 4746.5,5547.83 4746.5,5552.17 4746.5,5556.5C 4754.17,5556.5 4761.83,5556.5 4769.5,5556.5C 4769.67,5569.5 4769.5,5582.5 4769,5595.5C 4765.49,5597.67 4761.66,5598.83 4757.5,5599C 4751.65,5599.82 4745.98,5599.65 4740.5,5598.5C 4745.84,5598.67 4751.18,5598.5 4756.5,5598C 4760.66,5597.83 4764.49,5596.67 4768,5594.5C 4768.5,5582.17 4768.67,5569.84 4768.5,5557.5C 4760.83,5557.5 4753.17,5557.5 4745.5,5557.5C 4745.5,5552.5 4745.5,5547.5 4745.5,5542.5C 4758.17,5542.5 4770.83,5542.5 4783.5,5542.5C 4783.83,5563.84 4783.5,5585.18 4782.5,5606.5C 4759.68,5617.22 4737.01,5617.05 4714.5,5606C 4713.62,5605.29 4712.95,5604.46 4712.5,5603.5 Z"/></g>
<g><path style="opacity:0.894" fill="#62412c" d="M 5026.5,5535.5 C 5029.93,5540.02 5032.59,5545.02 5034.5,5550.5C 5031.07,5545.98 5028.41,5540.98 5026.5,5535.5 Z"/></g>
<g><path style="opacity:0.969" fill="#6e472e" d="M 5988.5,5603.5 C 6011.02,5615.94 6034.02,5616.61 6057.5,5605.5C 6058.5,5584.84 6058.83,5564.18 6058.5,5543.5C 6046.5,5543.5 6034.5,5543.5 6022.5,5543.5C 6022.5,5547.83 6022.5,5552.17 6022.5,5556.5C 6030.17,5556.5 6037.83,5556.5 6045.5,5556.5C 6045.82,5569.75 6045.49,5582.91 6044.5,5596C 6035.44,5599.22 6026.11,5600.22 6016.5,5599C 6010.46,5598.27 6005.12,5596.1 6000.5,5592.5C 6014.49,5599.38 6028.82,5600.21 6043.5,5595C 6044.49,5582.58 6044.82,5570.08 6044.5,5557.5C 6036.83,5557.5 6029.17,5557.5 6021.5,5557.5C 6021.5,5552.5 6021.5,5547.5 6021.5,5542.5C 6034.17,5542.5 6046.83,5542.5 6059.5,5542.5C 6059.83,5563.84 6059.5,5585.18 6058.5,5606.5C 6035.68,5617.22 6013.01,5617.05 5990.5,5606C 5989.62,5605.29 5988.95,5604.46 5988.5,5603.5 Z"/></g>
<g><path style="opacity:0.231" fill="#66432d" d="M 5047.5,5542.5 C 5050.26,5545.68 5052.26,5549.34 5053.5,5553.5C 5050.74,5550.32 5048.74,5546.66 5047.5,5542.5 Z"/></g>
<g><path style="opacity:0.753" fill="#fbb379" d="M 3404.5,3906.5 C 3404.83,3906.5 3405.17,3906.5 3405.5,3906.5C 3405.5,4454.17 3405.5,5001.83 3405.5,5549.5C 3383.17,5549.5 3360.83,5549.5 3338.5,5549.5C 3338.5,5002.83 3338.5,4456.17 3338.5,3909.5C 3338.5,3908.83 3338.83,3908.5 3339.5,3908.5C 3339.5,4455.17 3339.5,5001.83 3339.5,5548.5C 3361.17,5548.5 3382.83,5548.5 3404.5,5548.5C 3404.5,5001.17 3404.5,4453.83 3404.5,3906.5 Z"/></g>
<g><path style="opacity:0.427" fill="#63422d" d="M 4542.5,5545.5 C 4545.26,5548.68 4547.26,5552.34 4548.5,5556.5C 4545.74,5553.32 4543.74,5549.66 4542.5,5545.5 Z"/></g>
<g><path style="opacity:0.475" fill="#65422d" d="M 5557.5,5545.5 C 5556.25,5547.14 5554.58,5548.3 5552.5,5549C 5553.06,5549.38 5553.39,5549.88 5553.5,5550.5C 5552.24,5550.54 5551.24,5550.04 5550.5,5549C 5552.58,5547.3 5554.91,5546.13 5557.5,5545.5 Z"/></g>
<g><path style="opacity:0.725" fill="#4a3529" d="M 4407.5,5535.5 C 4408.49,5540.64 4408.82,5545.97 4408.5,5551.5C 4393.5,5551.5 4378.5,5551.5 4363.5,5551.5C 4362.83,5551.5 4362.5,5551.17 4362.5,5550.5C 4377.5,5550.5 4392.5,5550.5 4407.5,5550.5C 4407.5,5545.83 4407.5,5541.17 4407.5,5536.5C 4407.5,5536.17 4407.5,5535.83 4407.5,5535.5 Z"/></g>
<g><path style="opacity:0.286" fill="#60402c" d="M 5819.5,5547.5 C 5821.92,5550.01 5823.59,5553.01 5824.5,5556.5C 5822.08,5553.99 5820.41,5550.99 5819.5,5547.5 Z"/></g>
<g><path style="opacity:1" fill="#71482e" d="M 5553.5,5550.5 C 5556.5,5551.5 5558.5,5553.5 5559.5,5556.5C 5557.17,5554.83 5555.17,5552.83 5553.5,5550.5 Z"/></g>
<g><path style="opacity:1" fill="#62412d" d="M 5034.5,5550.5 C 5036.92,5553.01 5038.59,5556.01 5039.5,5559.5C 5037.08,5556.99 5035.41,5553.99 5034.5,5550.5 Z"/></g>
<g><path style="opacity:0.231" fill="#68442d" d="M 4556.5,5539.5 C 4564.46,5551.75 4571.13,5564.75 4576.5,5578.5C 4569.58,5565.66 4562.92,5552.66 4556.5,5539.5 Z"/></g>
<g><path style="opacity:0.231" fill="#6a452d" d="M 5837.5,5548.5 C 5843.54,5557.91 5848.54,5567.91 5852.5,5578.5C 5846.99,5568.82 5841.99,5558.82 5837.5,5548.5 Z"/></g>
<g><path style="opacity:0.427" fill="#63412d" d="M 4548.5,5556.5 C 4551.26,5559.68 4553.26,5563.34 4554.5,5567.5C 4551.74,5564.32 4549.74,5560.66 4548.5,5556.5 Z"/></g>
<g><path style="opacity:0.427" fill="#67432d" d="M 5824.5,5556.5 C 5827.26,5559.68 5829.26,5563.34 5830.5,5567.5C 5827.74,5564.32 5825.74,5560.66 5824.5,5556.5 Z"/></g>
<g><path style="opacity:0.616" fill="#65422c" d="M 5988.5,5512.5 C 5976.56,5535.16 5976.56,5557.83 5988.5,5580.5C 5984.98,5576.12 5982.48,5571.12 5981,5565.5C 5979.63,5558.73 5978.8,5551.9 5978.5,5545C 5978.38,5532.97 5981.71,5522.13 5988.5,5512.5 Z"/></g>
<g><path style="opacity:0.427" fill="#69452d" d="M 5039.5,5559.5 C 5042.26,5562.68 5044.26,5566.34 5045.5,5570.5C 5042.74,5567.32 5040.74,5563.66 5039.5,5559.5 Z"/></g>
<g><path style="opacity:0.961" fill="#6d462d" d="M 4709.5,5517.5 C 4700.82,5538.97 4701.82,5559.97 4712.5,5580.5C 4705.47,5570.39 4702.13,5559.06 4702.5,5546.5C 4702.19,5536.07 4704.52,5526.4 4709.5,5517.5 Z"/></g>
<g><path style="opacity:0.808" fill="#51382a" d="M 5054.5,5555.5 C 5058.87,5561.58 5062.21,5568.25 5064.5,5575.5C 5060.66,5569.15 5057.33,5562.48 5054.5,5555.5 Z"/></g>
<g><path style="opacity:0.286" fill="#6a452d" d="M 5559.5,5556.5 C 5564.32,5562.94 5566.98,5570.27 5567.5,5578.5C 5565.45,5571.03 5562.79,5563.7 5559.5,5556.5 Z"/></g>
<g><path style="opacity:0.427" fill="#64422d" d="M 5830.5,5567.5 C 5833.26,5570.68 5835.26,5574.34 5836.5,5578.5C 5833.74,5575.32 5831.74,5571.66 5830.5,5567.5 Z"/></g>
<g><path style="opacity:0.231" fill="#6c452d" d="M 6658.5,5511.5 C 6660.74,5514.75 6662.24,5518.42 6663,5522.5C 6666.28,5536.49 6666.28,5550.49 6663,5564.5C 6662.16,5568.86 6660.66,5572.86 6658.5,5576.5C 6665.1,5554.81 6665.1,5533.14 6658.5,5511.5 Z"/></g>
<g><path style="opacity:1" fill="#60402c" d="M 4554.5,5567.5 C 4556.92,5570.01 4558.59,5573.01 4559.5,5576.5C 4557.08,5573.99 4555.41,5570.99 4554.5,5567.5 Z"/></g>
<g><path style="opacity:0.427" fill="#63422d" d="M 5045.5,5570.5 C 5048.26,5573.68 5050.26,5577.34 5051.5,5581.5C 5048.74,5578.32 5046.74,5574.66 5045.5,5570.5 Z"/></g>
<g><path style="opacity:0.894" fill="#5c3e2b" d="M 6645.5,5569.5 C 6644.87,5573.42 6643.21,5576.75 6640.5,5579.5C 6641.66,5575.85 6643.33,5572.52 6645.5,5569.5 Z"/></g>
<g><path style="opacity:0.894" fill="#69442d" d="M 4694.5,5515.5 C 4685.7,5540.88 4687.37,5565.55 4699.5,5589.5C 4695.37,5584.23 4692.53,5578.23 4691,5571.5C 4685.64,5552.28 4686.81,5533.61 4694.5,5515.5 Z"/></g>
<g><path style="opacity:0.69" fill="#63412c" d="M 5988.5,5580.5 C 5990.26,5581.26 5991.26,5582.6 5991.5,5584.5C 5989.74,5583.74 5988.74,5582.4 5988.5,5580.5 Z"/></g>
<g><path style="opacity:0.98" fill="#543a2b" d="M 6640.5,5579.5 C 6640.26,5581.4 6639.26,5582.74 6637.5,5583.5C 6637.74,5581.6 6638.74,5580.26 6640.5,5579.5 Z"/></g>
<g><path style="opacity:0.98" fill="#543a2b" d="M 4712.5,5580.5 C 4714.26,5581.26 4715.26,5582.6 4715.5,5584.5C 4713.74,5583.74 4712.74,5582.4 4712.5,5580.5 Z"/></g>
<g><path style="opacity:0.904" fill="#5f402c" d="M 4560.5,5578.5 C 4562.92,5581.01 4564.59,5584.01 4565.5,5587.5C 4563.08,5584.99 4561.41,5581.99 4560.5,5578.5 Z"/></g>
<g><path style="opacity:0.949" fill="#62412c" d="M 5051.5,5581.5 C 5054.26,5584.68 5056.26,5588.34 5057.5,5592.5C 5054.74,5589.32 5052.74,5585.66 5051.5,5581.5 Z"/></g>
<g><path style="opacity:1" fill="#5e3f2c" d="M 5836.5,5578.5 C 5839.26,5581.68 5841.26,5585.34 5842.5,5589.5C 5839.74,5586.32 5837.74,5582.66 5836.5,5578.5 Z"/></g>
<g><path style="opacity:0.231" fill="#65422d" d="M 6658.5,5576.5 C 6657.03,5582.77 6654.03,5588.1 6649.5,5592.5C 6652.5,5587.16 6655.5,5581.83 6658.5,5576.5 Z"/></g>
<g><path style="opacity:1" fill="#7d4e2e" d="M 4715.5,5584.5 C 4717.5,5585.83 4719.17,5587.5 4720.5,5589.5C 4717.83,5588.83 4716.17,5587.17 4715.5,5584.5 Z"/></g>
<g><path style="opacity:0.427" fill="#6d462d" d="M 5970.5,5515.5 C 5962.41,5540.88 5964.08,5565.55 5975.5,5589.5C 5971.37,5584.23 5968.53,5578.23 5967,5571.5C 5961.64,5552.28 5962.81,5533.61 5970.5,5515.5 Z"/></g>
<g><path style="opacity:1" fill="#7f4e2e" d="M 5991.5,5584.5 C 5993.5,5585.83 5995.17,5587.5 5996.5,5589.5C 5993.83,5588.83 5992.17,5587.17 5991.5,5584.5 Z"/></g>
<g><path style="opacity:0.965" fill="#68442d" d="M 4580.5,5566.5 C 4581.21,5573.86 4581.88,5581.36 4582.5,5589C 4582.17,5589.5 4581.83,5590 4581.5,5590.5C 4579.28,5586.73 4577.61,5582.73 4576.5,5578.5C 4577.89,5580.27 4579.06,5582.27 4580,5584.5C 4580.5,5578.51 4580.67,5572.51 4580.5,5566.5 Z"/></g>
<g><path style="opacity:1" fill="#f37d20" d="M 6765.5,5592.5 C 6768.35,5599.36 6768.01,5606.02 6764.5,5612.5C 6758.6,5615.92 6754.1,5614.59 6751,5608.5C 6749.89,5604.91 6749.39,5601.25 6749.5,5597.5C 6752.89,5589.47 6758.23,5587.8 6765.5,5592.5 Z"/></g>
<g><path style="opacity:0.427" fill="#67432d" d="M 4565.5,5587.5 C 4568.26,5590.68 4570.26,5594.34 4571.5,5598.5C 4568.74,5595.32 4566.74,5591.66 4565.5,5587.5 Z"/></g>
<g><path style="opacity:0.286" fill="#53392a" d="M 4720.5,5589.5 C 4722.4,5589.74 4723.74,5590.74 4724.5,5592.5C 4722.6,5592.26 4721.26,5591.26 4720.5,5589.5 Z"/></g>
<g><path style="opacity:0.69" fill="#5f3f2b" d="M 5996.5,5589.5 C 5998.4,5589.74 5999.74,5590.74 6000.5,5592.5C 5998.6,5592.26 5997.26,5591.26 5996.5,5589.5 Z"/></g>
<g><path style="opacity:0.793" fill="#65432d" d="M 6765.5,5592.5 C 6758.23,5587.8 6752.89,5589.47 6749.5,5597.5C 6750.59,5590.58 6754.59,5587.75 6761.5,5589C 6763.54,5589.5 6764.88,5590.66 6765.5,5592.5 Z"/></g>
<g><path style="opacity:0.737" fill="#63422d" d="M 5975.5,5589.5 C 5976.91,5589.97 5977.57,5590.97 5977.5,5592.5C 5976.09,5592.03 5975.43,5591.03 5975.5,5589.5 Z"/></g>
<g><path style="opacity:0.286" fill="#60402c" d="M 5842.5,5589.5 C 5844.92,5592.01 5846.59,5595.01 5847.5,5598.5C 5845.08,5595.99 5843.41,5592.99 5842.5,5589.5 Z"/></g>
<g><path style="opacity:0.894" fill="#68442d" d="M 5533.5,5555.5 C 5534.17,5555.5 5534.83,5555.5 5535.5,5555.5C 5542.41,5556.38 5547.24,5560.04 5550,5566.5C 5554.07,5581.37 5557.57,5596.37 5560.5,5611.5C 5565.18,5611.67 5569.85,5611.5 5574.5,5611C 5571.97,5603.71 5570.3,5596.21 5569.5,5588.5C 5571.79,5596.31 5573.79,5604.31 5575.5,5612.5C 5570.17,5612.5 5564.83,5612.5 5559.5,5612.5C 5556.43,5597.4 5552.93,5582.4 5549,5567.5C 5545.7,5560.95 5540.53,5556.95 5533.5,5555.5 Z"/></g>
<g><path style="opacity:0.286" fill="#60402c" d="M 5057.5,5592.5 C 5059.92,5595.01 5061.59,5598.01 5062.5,5601.5C 5060.08,5598.99 5058.41,5595.99 5057.5,5592.5 Z"/></g>
<g><path style="opacity:0.79" fill="#63412d" d="M 4724.5,5592.5 C 4729.84,5594.72 4735.18,5596.72 4740.5,5598.5C 4734.41,5598.25 4729.07,5596.25 4724.5,5592.5 Z"/></g>
<g><path style="opacity:1" fill="#6d462d" d="M 4699.5,5589.5 C 4703.81,5594.14 4708.14,5598.81 4712.5,5603.5C 4706.78,5600.11 4702.45,5595.45 4699.5,5589.5 Z"/></g>
<g><path style="opacity:1" fill="#69452d" d="M 5977.5,5592.5 C 5981.5,5595.83 5985.17,5599.5 5988.5,5603.5C 5983.83,5600.83 5980.17,5597.17 5977.5,5592.5 Z"/></g>
<g><path style="opacity:0.969" fill="#6c452d" d="M 6765.5,5592.5 C 6766.79,5593.06 6767.62,5594.06 6768,5595.5C 6768.67,5599.83 6768.67,5604.17 6768,5608.5C 6767.34,5610.32 6766.17,5611.66 6764.5,5612.5C 6768.01,5606.02 6768.35,5599.36 6765.5,5592.5 Z"/></g>
<g><path style="opacity:0.427" fill="#63422d" d="M 4571.5,5598.5 C 4574.26,5601.68 4576.26,5605.34 4577.5,5609.5C 4574.74,5606.32 4572.74,5602.66 4571.5,5598.5 Z"/></g>
<g><path style="opacity:0.427" fill="#65422d" d="M 5847.5,5598.5 C 5850.26,5601.68 5852.26,5605.34 5853.5,5609.5C 5850.74,5606.32 5848.74,5602.66 5847.5,5598.5 Z"/></g>
<g><path style="opacity:0.427" fill="#5d3e2b" d="M 6649.5,5592.5 C 6646.38,5598.28 6641.71,5602.28 6635.5,5604.5C 6640.44,5600.9 6645.1,5596.9 6649.5,5592.5 Z"/></g>
<g><path style="opacity:0.863" fill="#68442d" d="M 6749.5,5597.5 C 6749.39,5601.25 6749.89,5604.91 6751,5608.5C 6754.1,5614.59 6758.6,5615.92 6764.5,5612.5C 6756.96,5617.5 6751.79,5615.5 6749,5606.5C 6748.2,5603.3 6748.36,5600.3 6749.5,5597.5 Z"/></g>
<g><path style="opacity:0.549" fill="#6b452d" d="M 6635.5,5604.5 C 6631.44,5607.7 6626.77,5609.87 6621.5,5611C 6615.63,5612.81 6609.63,5613.64 6603.5,5613.5C 6614.5,5612.08 6625.17,5609.08 6635.5,5604.5 Z"/></g>
<g><path style="opacity:1" fill="#7f4e2e" d="M 4407.5,5535.5 C 4407.5,5535.83 4407.5,5536.17 4407.5,5536.5C 4392.17,5536.5 4376.83,5536.5 4361.5,5536.5C 4361.5,5522.5 4361.5,5508.5 4361.5,5494.5C 4377.5,5494.5 4393.5,5494.5 4409.5,5494.5C 4409.5,5489.83 4409.5,5485.17 4409.5,5480.5C 4389.5,5480.5 4369.5,5480.5 4349.5,5480.5C 4349.5,5524.17 4349.5,5567.83 4349.5,5611.5C 4370.17,5611.5 4390.83,5611.5 4411.5,5611.5C 4411.5,5607.17 4411.5,5602.83 4411.5,5598.5C 4394.83,5598.5 4378.17,5598.5 4361.5,5598.5C 4361.17,5582.32 4361.5,5566.32 4362.5,5550.5C 4362.5,5551.17 4362.83,5551.5 4363.5,5551.5C 4363.5,5566.83 4363.5,5582.17 4363.5,5597.5C 4380.17,5597.5 4396.83,5597.5 4413.5,5597.5C 4413.5,5602.5 4413.5,5607.5 4413.5,5612.5C 4391.83,5612.5 4370.17,5612.5 4348.5,5612.5C 4348.5,5568.17 4348.5,5523.83 4348.5,5479.5C 4369.17,5479.5 4389.83,5479.5 4410.5,5479.5C 4410.5,5484.83 4410.5,5490.17 4410.5,5495.5C 4394.83,5495.5 4379.17,5495.5 4363.5,5495.5C 4363.5,5508.83 4363.5,5522.17 4363.5,5535.5C 4378.17,5535.5 4392.83,5535.5 4407.5,5535.5 Z"/></g>
<g><path style="opacity:1" fill="#73492e" d="M 5245.5,5494.5 C 5245.83,5494.5 5246.17,5494.5 5246.5,5494.5C 5230.68,5495.5 5214.68,5495.83 5198.5,5495.5C 5198.5,5508.83 5198.5,5522.17 5198.5,5535.5C 5213.5,5535.5 5228.5,5535.5 5243.5,5535.5C 5243.5,5540.83 5243.5,5546.17 5243.5,5551.5C 5228.5,5551.5 5213.5,5551.5 5198.5,5551.5C 5198.5,5566.83 5198.5,5582.17 5198.5,5597.5C 5215.17,5597.5 5231.83,5597.5 5248.5,5597.5C 5248.5,5602.5 5248.5,5607.5 5248.5,5612.5C 5227.17,5612.5 5205.83,5612.5 5184.5,5612.5C 5184.5,5612.17 5184.5,5611.83 5184.5,5611.5C 5205.5,5611.5 5226.5,5611.5 5247.5,5611.5C 5247.5,5607.17 5247.5,5602.83 5247.5,5598.5C 5230.83,5598.5 5214.17,5598.5 5197.5,5598.5C 5197.5,5582.5 5197.5,5566.5 5197.5,5550.5C 5212.5,5550.5 5227.5,5550.5 5242.5,5550.5C 5242.5,5545.83 5242.5,5541.17 5242.5,5536.5C 5227.5,5536.5 5212.5,5536.5 5197.5,5536.5C 5197.5,5522.5 5197.5,5508.5 5197.5,5494.5C 5213.5,5494.5 5229.5,5494.5 5245.5,5494.5 Z"/></g>
<g><path style="opacity:1" fill="#88522e" d="M 5343.5,5479.5 C 5343.5,5480.17 5343.83,5480.5 5344.5,5480.5C 5344.5,5524.17 5344.5,5567.83 5344.5,5611.5C 5365.17,5611.5 5385.83,5611.5 5406.5,5611.5C 5406.5,5607.17 5406.5,5602.83 5406.5,5598.5C 5389.83,5598.5 5373.17,5598.5 5356.5,5598.5C 5356.17,5582.32 5356.5,5566.32 5357.5,5550.5C 5357.5,5550.83 5357.5,5551.17 5357.5,5551.5C 5357.5,5566.83 5357.5,5582.17 5357.5,5597.5C 5374.17,5597.5 5390.83,5597.5 5407.5,5597.5C 5407.5,5602.5 5407.5,5607.5 5407.5,5612.5C 5385.83,5612.5 5364.17,5612.5 5342.5,5612.5C 5342.17,5568 5342.5,5523.66 5343.5,5479.5 Z"/></g>
<g><path style="opacity:1" fill="#6d462e" d="M 6283.5,5597.5 C 6283.5,5596.83 6283.83,5596.5 6284.5,5596.5C 6300.83,5596.5 6317.17,5596.5 6333.5,5596.5C 6333.5,5601.83 6333.5,5607.17 6333.5,5612.5C 6312.17,5612.5 6290.83,5612.5 6269.5,5612.5C 6269.5,5612.17 6269.5,5611.83 6269.5,5611.5C 6290.5,5611.5 6311.5,5611.5 6332.5,5611.5C 6332.5,5606.83 6332.5,5602.17 6332.5,5597.5C 6316.17,5597.5 6299.83,5597.5 6283.5,5597.5 Z"/></g>
</svg>
